<mxfile modified="2021-12-24T18:14:20.759Z" host="app.diagrams.net" agent="5.0 (Windows NT 10.0; Win64; x64) AppleWebKit/537.36 (KHTML, like Gecko) Chrome/96.0.4664.110 Safari/537.36" etag="3DlMwwYopwcVbtdXVrpq" version="16.1.0" type="github">
  <diagram id="WI9T0HZ2pTsCkuznbFz-" name="Page-1">
    <mxGraphModel dx="1422" dy="762" grid="1" gridSize="10" guides="1" tooltips="1" connect="1" arrows="1" fold="1" page="1" pageScale="1" pageWidth="1169" pageHeight="827" math="0" shadow="0">
      <root>
        <mxCell id="0" />
        <mxCell id="1" parent="0" />
        <mxCell id="hJ-bLelYIH7DVtIRV5_r-14" value="" style="rounded=0;whiteSpace=wrap;html=1;" vertex="1" parent="1">
          <mxGeometry x="420" y="210" width="280" height="160" as="geometry" />
        </mxCell>
        <mxCell id="hJ-bLelYIH7DVtIRV5_r-5" value="Azure Storage Blob to hold  Song.mp4" style="shape=image;verticalLabelPosition=bottom;labelBackgroundColor=#ffffff;verticalAlign=top;aspect=fixed;imageAspect=0;image=data:image/svg+xml,PHN2ZyB4bWxuczpjYz0iaHR0cDovL2NyZWF0aXZlY29tbW9ucy5vcmcvbnMjIiB4bWxuczpkYz0iaHR0cDovL3B1cmwub3JnL2RjL2VsZW1lbnRzLzEuMS8iIHhtbG5zOmlua3NjYXBlPSJodHRwOi8vd3d3Lmlua3NjYXBlLm9yZy9uYW1lc3BhY2VzL2lua3NjYXBlIiB4bWxuczpyZGY9Imh0dHA6Ly93d3cudzMub3JnLzE5OTkvMDIvMjItcmRmLXN5bnRheC1ucyMiIHhtbG5zOnNvZGlwb2RpPSJodHRwOi8vc29kaXBvZGkuc291cmNlZm9yZ2UubmV0L0RURC9zb2RpcG9kaS0wLmR0ZCIgeG1sbnM6c3ZnPSJodHRwOi8vd3d3LnczLm9yZy8yMDAwL3N2ZyIgeG1sbnM9Imh0dHA6Ly93d3cudzMub3JnLzIwMDAvc3ZnIiB4bWxuczp4bGluaz0iaHR0cDovL3d3dy53My5vcmcvMTk5OS94bGluayIgdmVyc2lvbj0iMS4xIiBpZD0ic3ZnMTA5Mjk0IiBpbmtzY2FwZTp2ZXJzaW9uPSIwLjkyLjMgKDI0MDU1NDYsIDIwMTgtMDMtMTEpIiBzb2RpcG9kaTpkb2NuYW1lPSJhenVyZV9ibG9iX3N0b3JhZ2Uuc3ZnIiB4PSIwcHgiIHk9IjBweCIgdmlld0JveD0iMCAwIDc2LjQyIDY2LjMiIHN0eWxlPSJlbmFibGUtYmFja2dyb3VuZDpuZXcgMCAwIDc2LjQyIDY2LjM7IiB4bWw6c3BhY2U9InByZXNlcnZlIj4mI3hhOzxzb2RpcG9kaTpuYW1lZHZpZXcgYm9yZGVyY29sb3I9IiM2NjY2NjYiIGJvcmRlcm9wYWNpdHk9IjEiIGZpdC1tYXJnaW4tYm90dG9tPSIwIiBmaXQtbWFyZ2luLWxlZnQ9IjAiIGZpdC1tYXJnaW4tcmlnaHQ9IjAiIGZpdC1tYXJnaW4tdG9wPSIwIiBncmlkdG9sZXJhbmNlPSIxMCIgZ3VpZGV0b2xlcmFuY2U9IjEwIiBpZD0ibmFtZWR2aWV3MTA5Mjk2IiBpbmtzY2FwZTpjdXJyZW50LWxheWVyPSJzdmcxMDkyOTQiIGlua3NjYXBlOmN4PSI1MC45NDUxOTMiIGlua3NjYXBlOmN5PSI0NC4xOTk1NTEiIGlua3NjYXBlOnBhZ2VvcGFjaXR5PSIwIiBpbmtzY2FwZTpwYWdlc2hhZG93PSIyIiBpbmtzY2FwZTp3aW5kb3ctaGVpZ2h0PSIxMDE3IiBpbmtzY2FwZTp3aW5kb3ctbWF4aW1pemVkPSIxIiBpbmtzY2FwZTp3aW5kb3ctd2lkdGg9IjE5MjAiIGlua3NjYXBlOndpbmRvdy14PSItOCIgaW5rc2NhcGU6d2luZG93LXk9Ii04IiBpbmtzY2FwZTp6b29tPSI4Ljc0NjA0MTEiIG9iamVjdHRvbGVyYW5jZT0iMTAiIHBhZ2Vjb2xvcj0iI2ZmZmZmZiIgc2hvd2dyaWQ9ImZhbHNlIj4mI3hhOwk8L3NvZGlwb2RpOm5hbWVkdmlldz4mI3hhOzxnIGlkPSJnMTA5MjkyIiB0cmFuc2Zvcm09InRyYW5zbGF0ZSgtNC4wMjYzMiwtNC4wMjM4NzY1KSI+JiN4YTsJPHRpdGxlIGlkPSJ0aXRsZTEwOTI2NCI+UGFnZS0xPC90aXRsZT4mI3hhOwk8ZyBpZD0iZ3JvdXAyNjQtMSIgdHJhbnNmb3JtPSJ0cmFuc2xhdGUoNC4wMjYzMiwtNC4wMjYzMikiPiYjeGE7CQk8dGl0bGUgaWQ9InRpdGxlMTA5MjY2Ij5BenVyZSBCbG9iIFN0b3JhZ2UgKERlcHJlY2F0ZWQpPC90aXRsZT4mI3hhOwkJPGcgaWQ9Imdyb3VwMjY1LTIiPiYjeGE7CQkJPHRpdGxlIGlkPSJ0aXRsZTEwOTI2OCI+U2hlZXQuMjY1PC90aXRsZT4mI3hhOwkJCTxnIGlkPSJzaGFwZTI2Ni0zIj4mI3hhOwkJCQk8dGl0bGUgaWQ9InRpdGxlMTA5MjcwIj5TaGVldC4yNjY8L3RpdGxlPiYjeGE7CQkJCTxwYXRoIGlkPSJwYXRoMTA5MjcyIiBpbmtzY2FwZTpjb25uZWN0b3ItY3VydmF0dXJlPSIwIiBzdHlsZT0iZmlsbDojMDA3OEQ3OyIgZD0iTTU3LjM2LDguMDVIMTkuMDVMMCw0MS4ybDE5LjA1LDMzLjE1aDM4LjMxICAgICAgTDc2LjQyLDQxLjJMNTcuMzYsOC4wNXogTTU3LjU2LDU2LjA5YzAsMi43OC0yLjM4LDUuMTYtNS4xNiw1LjE2SDI0LjIyYy0yLjc4LDAtNS4xNy0yLjM4LTUuMTctNS4xNlYyNi41MSAgICAgIGMwLTIuNzgsMi4zOS01LjE2LDUuMTctNS4xNmgyMC44NGMxLjk4LDAsMy45NywwLDMuOTcsMGgwLjU5bDcuOTQsNy45NHY0LjE3TDU3LjU2LDU2LjA5eiIvPiYjeGE7CQkJPC9nPiYjeGE7CQkJPGcgaWQ9InNoYXBlMjY3LTUiIHRyYW5zZm9ybT0idHJhbnNsYXRlKDMyLjE1NTEsLTIxLjQzNjgpIj4mI3hhOwkJCQk8dGl0bGUgaWQ9InRpdGxlMTA5Mjc1Ij5TaGVldC4yNjc8L3RpdGxlPiYjeGE7CQkJCTxwYXRoIGlkPSJwYXRoMTA5Mjc3IiBpbmtzY2FwZTpjb25uZWN0b3ItY3VydmF0dXJlPSIwIiBzdHlsZT0iZmlsbDojMDA3OEQ3OyIgZD0iTTMuMTgsNjhjMC0wLjQtMC4yLTAuNi0wLjItMC44ICAgICAgYzAtMC4yLTAuMi0wLjM5LTAuNC0wLjU5cy0wLjItMC4yLTAuNC0wLjJzLTAuMzksMC0wLjU5LDBjLTAuNCwwLTAuNiwwLTAuOCwwLjJDMC42LDY2LjgxLDAuNCw2NywwLjIsNjcuNFMwLDY4LjE5LDAsNjguNTkgICAgICBjMCwwLjQsMCwwLjk5LDAsMS43OWMwLDAuNzksMCwxLjM5LDAsMS45OGMwLDAuNiwwLjIsMSwwLjQsMS4xOWMwLjIsMC40LDAuMzksMC42LDAuNTksMC42YzAuMiwwLjIsMC40LDAuMiwwLjgsMC4yICAgICAgYzAuMTksMCwwLjM5LDAsMC41OS0wLjJjMC4yLDAsMC40LTAuMiwwLjQtMC40YzAuMi0wLjIsMC4yLTAuMzksMC40LTAuNTljMC0wLjIsMC4xOS0wLjQsMC4xOS0wLjhjMC0wLjIsMC0wLjU5LDAuMi0wLjk5ICAgICAgYzAtMC40LDAtMC43OSwwLTEuMTljMC0wLjYsMC0wLjk5LDAtMS4zOUMzLjE4LDY4LjU5LDMuMTgsNjguMzksMy4xOCw2OHoiLz4mI3hhOwkJCTwvZz4mI3hhOwkJCTxnIGlkPSJzaGFwZTI2OC03IiB0cmFuc2Zvcm09InRyYW5zbGF0ZSg0MS4wODcxLC0zNi45MTg5KSI+JiN4YTsJCQkJPHRpdGxlIGlkPSJ0aXRsZTEwOTI4MCI+U2hlZXQuMjY4PC90aXRsZT4mI3hhOwkJCQk8cGF0aCBpZD0icGF0aDEwOTI4MiIgaW5rc2NhcGU6Y29ubmVjdG9yLWN1cnZhdHVyZT0iMCIgc3R5bGU9ImZpbGw6IzAwNzhENzsiIGQ9Ik0zLjE4LDY4YzAtMC40LTAuMi0wLjYtMC4yLTAuOCAgICAgIGMwLTAuMi0wLjItMC4zOS0wLjQtMC41OXMtMC4yLTAuMi0wLjQtMC4ycy0wLjM5LDAtMC41OSwwYy0wLjQsMC0wLjYsMC0wLjgsMC4yQzAuNiw2Ni44MSwwLjQsNjcsMC4yLDY3LjRTMCw2OC4xOSwwLDY4LjU5ICAgICAgYzAsMC40LDAsMC45OSwwLDEuNzljMCwwLjc5LDAsMS4zOSwwLDEuOThjMCwwLjYsMC4yLDEsMC40LDEuMTljMC4yLDAuNCwwLjM5LDAuNiwwLjU5LDAuNmMwLjIsMC4yLDAuNCwwLjIsMC44LDAuMiAgICAgIGMwLjE5LDAsMC4zOSwwLDAuNTktMC4yYzAuMiwwLDAuNC0wLjIsMC40LTAuNGMwLjItMC4yLDAuMi0wLjM5LDAuNC0wLjU5YzAtMC4yLDAuMTktMC40LDAuMTktMC44YzAtMC4yLDAtMC41OSwwLjItMC45OSAgICAgIGMwLTAuNCwwLTAuNzksMC0xLjE5YzAtMC42LDAtMC45OSwwLTEuMzlDMy4zNyw2OC43OSwzLjM3LDY4LjM5LDMuMTgsNjh6Ii8+JiN4YTsJCQk8L2c+JiN4YTsJCQk8ZyBpZD0ic2hhcGUyNjktOSIgdHJhbnNmb3JtPSJ0cmFuc2xhdGUoMjEuODMzNywtMTUuODc5MSkiPiYjeGE7CQkJCTx0aXRsZSBpZD0idGl0bGUxMDkyODUiPlNoZWV0LjI2OTwvdGl0bGU+JiN4YTsJCQkJPHBhdGggaWQ9InBhdGgxMDkyODciIGlua3NjYXBlOmNvbm5lY3Rvci1jdXJ2YXR1cmU9IjAiIHN0eWxlPSJmaWxsOiMwMDc4RDc7IiBkPSJNMjYuNCw0MC4wMWMtMC43OSwwLTEuOTksMC0zLjE4LDBIMi4zOCAgICAgIEMwLjk5LDQwLjAxLDAsNDEsMCw0Mi4zOXYyOS41OGMwLDEuMzksMC45OSwyLjM4LDIuMzgsMi4zOGgyOC4xOWMxLjE5LDAsMi4zOC0wLjk5LDIuMzgtMi4zOFY0Ni41NkgyNi42di02LjU1SDI2LjR6ICAgICAgIE04LjczLDQ1Ljk2di0wLjE5di0wLjJjMCwwLDAsMCwwLjItMC4ybDIuMzgtMS41OWMwLDAsMCwwLDAuMiwwaDAuMmgwLjJjMC4yLDAsMC4yLDAsMC40LDBjMC4xOSwwLDAuMzksMCwwLjU5LDBzMC4yLDAsMC40LDAgICAgICBoMC4yYzAsMCwwLDAsMCwwLjJ2OS4zM2gxLjc4aDAuMmMwLDAsMCwwLDAuMiwwLjJjMC4yLDAuMTksMCwwLjE5LDAsMC4xOWMwLDAuMiwwLDAuMiwwLDAuNHMwLDAuNCwwLDAuNGMwLDAuMiwwLDAuMiwwLDAuMiAgICAgIHMwLDAuMi0wLjIsMC4yYzAsMCwwLDAtMC4yLDBIOS4xM2MwLDAsMCwwLTAuMiwwYzAsMCwwLDAtMC4yLTAuMnYtMC4yYzAtMC4yLDAtMC4yLDAtMC40czAtMC40LDAtMC40YzAtMC4xOSwwLTAuMTksMC0wLjE5ICAgICAgczAtMC4yLDAuMi0wLjJjMCwwLDAsMCwwLjIsMGgyLjE4di03LjM1bC0xLjc4LDFjLTAuMiwwLTAuMiwwLjE5LTAuNCwwLjE5aC0wLjJjMCwwLDAtMC4xOS0wLjItMC4xOWMwLTAuMiwwLTAuMiwwLTAuNiAgICAgIEM4LjczLDQ2LjE2LDguNzMsNDUuOTYsOC43Myw0NS45NnogTTE1LjY4LDY3LjJjLTAuMiwwLjgtMC40LDEuMzktMC43OSwxLjc5Yy0wLjQsMC41OS0wLjgsMC45OS0xLjE5LDEuMTkgICAgICBjLTAuNiwwLjItMS4yLDAuNC0xLjk5LDAuNHMtMS4zOS0wLjItMS45OC0wLjRjLTAuNi0wLjItMS0wLjYtMS4xOS0xLjE5Yy0wLjItMC42LTAuNi0xLjE5LTAuNi0xLjc5ICAgICAgYy0wLjItMC43OS0wLjItMS41OS0wLjItMi4zOGMwLTAuOTksMC0xLjc5LDAuMi0yLjM4YzAuMi0wLjgsMC40LTEuMzksMC43OS0xLjc5YzAuNC0wLjM5LDAuOC0wLjk5LDEuMTktMS4xOSAgICAgIGMwLjYtMC4yLDEuMi0wLjQsMS45OS0wLjRzMS4zOSwwLjIsMS45OCwwLjRjMC42LDAuMiwxLDAuNiwxLjIsMS4xOWMwLjE5LDAuNiwwLjU5LDEuMTksMC41OSwxLjc5YzAuMiwwLjc5LDAuMiwxLjU5LDAuMiwyLjM4ICAgICAgQzE1Ljg4LDY1LjgxLDE1Ljg4LDY2LjYxLDE1LjY4LDY3LjJ6IE0yNC42MSw2OS45OGMwLDAuMiwwLDAuMiwwLDAuMnMwLDAuMi0wLjIsMC4yYzAsMCwwLDAtMC4xOSwwaC02LjE2YzAsMCwwLDAtMC4yLDAgICAgICBjMCwwLDAsMC0wLjE5LTAuMnYtMC4yYzAtMC4yLDAtMC4yLDAtMC40YzAtMC4xOSwwLTAuMzksMC0wLjM5YzAtMC4yLDAtMC4yLDAtMC4yczAtMC4yLDAuMTktMC4yYzAsMCwwLDAsMC4yLDBoMi4xOXYtNy4zNCAgICAgIGwtMS43OSwwLjk5Yy0wLjIsMC0wLjIsMC4yLTAuNCwwLjJoLTAuMmMwLDAsMC0wLjItMC4xOS0wLjJjMC0wLjIsMC0wLjIsMC0wLjZjMC0wLjIsMC0wLjIsMC0wLjM5di0wLjJ2LTAuMmMwLDAsMCwwLDAuMTktMC4yICAgICAgbDIuMzktMS41OWMwLDAsMCwwLDAuMTksMGgwLjJoMC4yYzAuMiwwLDAuMiwwLDAuNCwwYzAuMiwwLDAuNCwwLDAuNTksMGMwLjIsMCwwLjIsMCwwLjQsMGgwLjJjMCwwLDAsMCwwLDAuMnY5LjMzaDEuNzloMC4xOSAgICAgIGMwLDAsMCwwLDAuMiwwLjJ2MC4yYzAsMC4yLDAsMC4yLDAsMC4zOUMyNC42MSw2OS43OCwyNC42MSw2OS45OCwyNC42MSw2OS45OHogTTI0LjgxLDUxLjcyYy0wLjIsMC43OS0wLjQsMS4zOS0wLjc5LDEuNzkgICAgICBjLTAuNCwwLjU5LTAuOCwwLjk5LTEuMTksMS4xOWMtMC42LDAuMi0xLjE5LDAuMzktMS45OSwwLjM5Yy0wLjc5LDAtMS4zOS0wLjE5LTEuOTgtMC4zOWMtMC42LTAuMi0xLTAuNi0xLjE5LTEuMTkgICAgICBjLTAuMi0wLjQtMC42LTEuMTktMC42LTEuNzljMC0wLjYtMC4yLTEuNTktMC4yLTIuMzhjMC0wLjk5LDAtMS43OSwwLjItMi4zOGMwLjItMC44LDAuNC0xLjM5LDAuNzktMS43OSAgICAgIGMwLjQtMC42LDAuOC0wLjk5LDEuMTktMS4xOWMwLjYtMC4yLDEuMi0wLjQsMS45OS0wLjRjMC43OSwwLDEuMzksMC4yLDEuOTgsMC40YzAuNiwwLjIsMSwwLjU5LDEuMiwxLjE5ICAgICAgYzAuMTksMC42LDAuNTksMS4xOSwwLjU5LDEuNzljMC4yLDAuNzksMC4yLDEuNTgsMC4yLDIuMzhDMjUuMDEsNTAuMzMsMjQuODEsNTEuMTIsMjQuODEsNTEuNzJ6Ii8+JiN4YTsJCQk8L2c+JiN4YTsJCTwvZz4mI3hhOwk8L2c+JiN4YTs8L2c+JiN4YTs8L3N2Zz4=;" vertex="1" parent="1">
          <mxGeometry x="248.94" y="40" width="92.12" height="80" as="geometry" />
        </mxCell>
        <mxCell id="hJ-bLelYIH7DVtIRV5_r-15" style="edgeStyle=orthogonalEdgeStyle;rounded=0;orthogonalLoop=1;jettySize=auto;html=1;entryX=1;entryY=0.5;entryDx=0;entryDy=0;exitX=0;exitY=0.438;exitDx=0;exitDy=0;exitPerimeter=0;" edge="1" parent="1" source="hJ-bLelYIH7DVtIRV5_r-14" target="hJ-bLelYIH7DVtIRV5_r-10">
          <mxGeometry relative="1" as="geometry">
            <mxPoint x="410" y="280" as="sourcePoint" />
          </mxGeometry>
        </mxCell>
        <mxCell id="hJ-bLelYIH7DVtIRV5_r-6" value="Phase 1: One instance;&#xa; Dockerized" style="shape=image;verticalLabelPosition=bottom;labelBackgroundColor=#ffffff;verticalAlign=top;aspect=fixed;imageAspect=0;image=data:image/svg+xml,PHN2ZyB4bWxuczpjYz0iaHR0cDovL2NyZWF0aXZlY29tbW9ucy5vcmcvbnMjIiB4bWxuczpkYz0iaHR0cDovL3B1cmwub3JnL2RjL2VsZW1lbnRzLzEuMS8iIHhtbG5zOmlua3NjYXBlPSJodHRwOi8vd3d3Lmlua3NjYXBlLm9yZy9uYW1lc3BhY2VzL2lua3NjYXBlIiB4bWxuczpyZGY9Imh0dHA6Ly93d3cudzMub3JnLzE5OTkvMDIvMjItcmRmLXN5bnRheC1ucyMiIHhtbG5zOnNvZGlwb2RpPSJodHRwOi8vc29kaXBvZGkuc291cmNlZm9yZ2UubmV0L0RURC9zb2RpcG9kaS0wLmR0ZCIgeG1sbnM6c3ZnPSJodHRwOi8vd3d3LnczLm9yZy8yMDAwL3N2ZyIgeG1sbnM9Imh0dHA6Ly93d3cudzMub3JnLzIwMDAvc3ZnIiB4bWxuczp4bGluaz0iaHR0cDovL3d3dy53My5vcmcvMTk5OS94bGluayIgdmVyc2lvbj0iMS4xIiBpZD0ic3ZnNTY0MTEiIGlua3NjYXBlOnZlcnNpb249IjAuOTIuMyAoMjQwNTU0NiwgMjAxOC0wMy0xMSkiIHNvZGlwb2RpOmRvY25hbWU9ImF6dXJlX2NvbnRhaW5lcl9pbnN0YW5jZXMuc3ZnIiB4PSIwcHgiIHk9IjBweCIgdmlld0JveD0iMCAwIDM3LjcgMzcuOCIgc3R5bGU9ImVuYWJsZS1iYWNrZ3JvdW5kOm5ldyAwIDAgMzcuNyAzNy44OyIgeG1sOnNwYWNlPSJwcmVzZXJ2ZSI+JiN4YTs8c29kaXBvZGk6bmFtZWR2aWV3IGJvcmRlcmNvbG9yPSIjNjY2NjY2IiBib3JkZXJvcGFjaXR5PSIxIiBmaXQtbWFyZ2luLWJvdHRvbT0iMCIgZml0LW1hcmdpbi1sZWZ0PSIwIiBmaXQtbWFyZ2luLXJpZ2h0PSIwIiBmaXQtbWFyZ2luLXRvcD0iMCIgZ3JpZHRvbGVyYW5jZT0iMTAiIGd1aWRldG9sZXJhbmNlPSIxMCIgaWQ9Im5hbWVkdmlldzU2NDEzIiBpbmtzY2FwZTpjdXJyZW50LWxheWVyPSJzdmc1NjQxMSIgaW5rc2NhcGU6Y3g9IjI3LjYxODI3MyIgaW5rc2NhcGU6Y3k9IjIyLjQ3Mzg3NCIgaW5rc2NhcGU6cGFnZW9wYWNpdHk9IjAiIGlua3NjYXBlOnBhZ2VzaGFkb3c9IjIiIGlua3NjYXBlOndpbmRvdy1oZWlnaHQ9IjEwMTciIGlua3NjYXBlOndpbmRvdy1tYXhpbWl6ZWQ9IjEiIGlua3NjYXBlOndpbmRvdy13aWR0aD0iMTkyMCIgaW5rc2NhcGU6d2luZG93LXg9Ii04IiBpbmtzY2FwZTp3aW5kb3cteT0iLTgiIGlua3NjYXBlOnpvb209IjEwLjQyNTkxNCIgb2JqZWN0dG9sZXJhbmNlPSIxMCIgcGFnZWNvbG9yPSIjZmZmZmZmIiBzaG93Z3JpZD0iZmFsc2UiPiYjeGE7CTwvc29kaXBvZGk6bmFtZWR2aWV3PiYjeGE7PGcgaWQ9Imc1NjQwOSIgdHJhbnNmb3JtPSJ0cmFuc2xhdGUoLTEyLjI4NjgzNiwtMTIuMjgyMzczKSI+JiN4YTsJPHRpdGxlIGlkPSJ0aXRsZTU2MzY1Ij5QYWdlLTE8L3RpdGxlPiYjeGE7CTxnIGlkPSJncm91cDU3NjEtMSIgdHJhbnNmb3JtPSJ0cmFuc2xhdGUoMTIuNDQxOCwtMTIuMjg5MikiPiYjeGE7CQk8dGl0bGUgaWQ9InRpdGxlNTYzNjciPkF6dXJlIENvbnRhaW5lciBJbnN0YW5jZXM8L3RpdGxlPiYjeGE7CQk8ZyBpZD0ic2hhcGU1NzYyLTIiIHRyYW5zZm9ybT0idHJhbnNsYXRlKDAsLTEzLjYyOTMpIj4mI3hhOwkJCTx0aXRsZSBpZD0idGl0bGU1NjM2OSI+U2hlZXQuNTc2MjwvdGl0bGU+JiN4YTsJCQk8cGF0aCBpZD0icGF0aDU2MzcxIiBpbmtzY2FwZTpjb25uZWN0b3ItY3VydmF0dXJlPSIwIiBzdHlsZT0iZmlsbDojRkZGRkZGOyIgZD0iTTMxLjUsNDYuNzVjLTAuMjctNC45OC00LjUyLTguOC05LjUtOC41NCAgICAgYy0yLjc0LDAuMTUtNS4yNiwxLjUzLTYuODYsMy43NmMtMy4xMy0yLjQxLTcuNjItMS44My0xMC4wMywxLjI5Yy0xLjM0LDEuNzQtMS44MSw0LTEuMjcsNi4xM2MtMy40MiwxLjU0LTQuOTQsNS41Ny0zLjM5LDguOTkgICAgIGMxLjEsMi40MywzLjUyLDQsNi4xOSwzLjk5aDIzYzQuMzgtMC4wMSw3LjkyLTMuNTYsNy45MS03Ljk0QzM3LjU0LDUwLjc5LDM1LjA0LDQ3LjYxLDMxLjUsNDYuNzV6Ii8+JiN4YTsJCTwvZz4mI3hhOwkJPGcgaWQ9InNoYXBlNTc2My00IiB0cmFuc2Zvcm09InRyYW5zbGF0ZSgwLC0xMy42MjkzKSI+JiN4YTsJCQk8dGl0bGUgaWQ9InRpdGxlNTYzNzQiPlNoZWV0LjU3NjM8L3RpdGxlPiYjeGE7CQkJPHBhdGggaWQ9InBhdGg1NjM3NiIgaW5rc2NhcGU6Y29ubmVjdG9yLWN1cnZhdHVyZT0iMCIgc3R5bGU9ImZpbGw6IzI3QTlFMTtmaWxsLW9wYWNpdHk6MC42OyIgZD0iTTMxLjUsNDYuNzUgICAgIGMtMC4yNy00Ljk4LTQuNTItOC44LTkuNS04LjU0Yy0yLjc0LDAuMTUtNS4yNiwxLjUzLTYuODYsMy43NmMtMy4xMy0yLjQxLTcuNjItMS44My0xMC4wMywxLjI5Yy0xLjM0LDEuNzQtMS44MSw0LTEuMjcsNi4xMyAgICAgYy0zLjQyLDEuNTQtNC45NCw1LjU3LTMuMzksOC45OWMxLjEsMi40MywzLjUyLDQsNi4xOSwzLjk5aDIzYzQuMzgtMC4wMSw3LjkyLTMuNTYsNy45MS03Ljk0ICAgICBDMzcuNTQsNTAuNzksMzUuMDQsNDcuNjEsMzEuNSw0Ni43NXoiLz4mI3hhOwkJPC9nPiYjeGE7CQk8ZyBpZD0ic2hhcGU1NzY0LTYiIHRyYW5zZm9ybT0idHJhbnNsYXRlKDguODU4MjQpIj4mI3hhOwkJCTx0aXRsZSBpZD0idGl0bGU1NjM3OSI+U2hlZXQuNTc2NDwvdGl0bGU+JiN4YTsJCQk8cGF0aCBpZD0icGF0aDU2MzgxIiBpbmtzY2FwZTpjb25uZWN0b3ItY3VydmF0dXJlPSIwIiBzdHlsZT0iZmlsbDojNjcyQTdBOyIgZD0iTTAuNzYsNDEuMTdDMC4zNCw0MS4xNywwLDQxLjUxLDAsNDEuOTMgICAgIGMwLDAsMCwwLDAsMGwwLDE5LjY4YzAsMC40MiwwLjM0LDAuNzYsMC43NiwwLjc2YzAsMCwwLDAsMCwwbDE4LjE3LDBjMC40MiwwLDAuNzYtMC4zNCwwLjc2LTAuNzZsMC0xOS42OSAgICAgYzAtMC40Mi0wLjM0LTAuNzYtMC43Ni0wLjc2aDBMMC43Niw0MS4xN3oiLz4mI3hhOwkJPC9nPiYjeGE7CQk8ZyBpZD0ic2hhcGU1NzY1LTgiIHRyYW5zZm9ybT0idHJhbnNsYXRlKDIwLjE3ODEsLTI1Ljc0NDMpIj4mI3hhOwkJCTx0aXRsZSBpZD0idGl0bGU1NjM4NCI+U2hlZXQuNTc2NTwvdGl0bGU+JiN4YTsJCTwvZz4mI3hhOwkJPGcgaWQ9InNoYXBlNTc2Ni05IiB0cmFuc2Zvcm09InRyYW5zbGF0ZSgyNi4yMzU2LC0yMi43MTU1KSI+JiN4YTsJCQk8dGl0bGUgaWQ9InRpdGxlNTYzODciPlNoZWV0LjU3NjY8L3RpdGxlPiYjeGE7CQk8L2c+JiN4YTsJCTxnIGlkPSJzaGFwZTU3NjctMTAiIHRyYW5zZm9ybT0idHJhbnNsYXRlKDE0LjkxNTcsLTIxLjIwMTIpIj4mI3hhOwkJCTx0aXRsZSBpZD0idGl0bGU1NjM5MCI+U2hlZXQuNTc2NzwvdGl0bGU+JiN4YTsJCQk8cGF0aCBpZD0icGF0aDU2MzkyIiBpbmtzY2FwZTpjb25uZWN0b3ItY3VydmF0dXJlPSIwIiBzdHlsZT0iZmlsbDojRkZGRkZGOyIgZD0iTTIuMjcsNjIuMzd2LTUuM0gwbDMuNzktNS4zbDMuNzgsNS4zSDUuM3Y1LjMgICAgIEgyLjI3eiIvPiYjeGE7CQk8L2c+JiN4YTsJCTxnIGlkPSJzaGFwZTU3NjgtMTIiIHRyYW5zZm9ybT0idHJhbnNsYXRlKDIwLjE3ODEsLTI1Ljc0NDMpIj4mI3hhOwkJCTx0aXRsZSBpZD0idGl0bGU1NjM5NSI+U2hlZXQuNTc2ODwvdGl0bGU+JiN4YTsJCTwvZz4mI3hhOwkJPGcgaWQ9InNoYXBlNTc2OS0xMyIgdHJhbnNmb3JtPSJ0cmFuc2xhdGUoMTEuMTI5OCwtMi4yNzE1NSkiPiYjeGE7CQkJPHRpdGxlIGlkPSJ0aXRsZTU2Mzk4Ij5TaGVldC41NzY5PC90aXRsZT4mI3hhOwkJCTxwYXRoIGlkPSJwYXRoNTY0MDAiIGlua3NjYXBlOmNvbm5lY3Rvci1jdXJ2YXR1cmU9IjAiIHN0eWxlPSJmaWxsOiNCOTIwMjU7ZmlsbC1vcGFjaXR5OjAuMzsiIGQ9Ik0xMy42Myw0NS43MUgwdjE2LjY2aDE1LjE0ICAgICBWNDUuNzFIMTMuNjN6IE00LjU0LDYwLjg1SDEuNTFWNDcuMjJoMy4wM1Y2MC44NXogTTkuMDksNjAuODVINi4wNlY0Ny4yMmgzLjAzVjYwLjg1eiBNMTMuNjMsNjAuODVIMTAuNlY0Ny4yMmgzLjAzVjYwLjg1eiIvPiYjeGE7CQk8L2c+JiN4YTsJCTxnIGlkPSJzaGFwZTU3NzAtMTUiIHRyYW5zZm9ybT0idHJhbnNsYXRlKDExLjEyOTgsLTIuMjcxNTUpIj4mI3hhOwkJCTx0aXRsZSBpZD0idGl0bGU1NjQwMyI+U2hlZXQuNTc3MDwvdGl0bGU+JiN4YTsJCQk8cGF0aCBpZD0icGF0aDU2NDA1IiBpbmtzY2FwZTpjb25uZWN0b3ItY3VydmF0dXJlPSIwIiBzdHlsZT0iZmlsbDojRkZGRkZGOyIgZD0iTTEzLjYzLDQ1LjcxSDB2MTYuNjZoMTUuMTRWNDUuNzFIMTMuNjN6ICAgICAgTTQuNTQsNjAuODVIMS41MVY0Ny4yMmgzLjAzVjYwLjg1eiBNOS4wOSw2MC44NUg2LjA2VjQ3LjIyaDMuMDNWNjAuODV6IE0xMy42Myw2MC44NUgxMC42VjQ3LjIyaDMuMDNWNjAuODV6Ii8+JiN4YTsJCTwvZz4mI3hhOwk8L2c+JiN4YTs8L2c+JiN4YTs8L3N2Zz4=;" vertex="1" parent="1">
          <mxGeometry x="450" y="240" width="80" height="80" as="geometry" />
        </mxCell>
        <mxCell id="hJ-bLelYIH7DVtIRV5_r-16" style="edgeStyle=orthogonalEdgeStyle;rounded=0;orthogonalLoop=1;jettySize=auto;html=1;" edge="1" parent="1" source="hJ-bLelYIH7DVtIRV5_r-7" target="hJ-bLelYIH7DVtIRV5_r-12">
          <mxGeometry relative="1" as="geometry" />
        </mxCell>
        <mxCell id="hJ-bLelYIH7DVtIRV5_r-7" value="Phase 2: Use Cluster&#xa;of Containers" style="shape=image;verticalLabelPosition=bottom;labelBackgroundColor=#ffffff;verticalAlign=top;aspect=fixed;imageAspect=0;image=data:image/svg+xml,PHN2ZyB4bWxuczpkYz0iaHR0cDovL3B1cmwub3JnL2RjL2VsZW1lbnRzLzEuMS8iIHhtbG5zOmNjPSJodHRwOi8vY3JlYXRpdmVjb21tb25zLm9yZy9ucyMiIHhtbG5zOnJkZj0iaHR0cDovL3d3dy53My5vcmcvMTk5OS8wMi8yMi1yZGYtc3ludGF4LW5zIyIgeG1sbnM6c3ZnPSJodHRwOi8vd3d3LnczLm9yZy8yMDAwL3N2ZyIgeG1sbnM9Imh0dHA6Ly93d3cudzMub3JnLzIwMDAvc3ZnIiB4bWxuczpzb2RpcG9kaT0iaHR0cDovL3NvZGlwb2RpLnNvdXJjZWZvcmdlLm5ldC9EVEQvc29kaXBvZGktMC5kdGQiIHhtbG5zOmlua3NjYXBlPSJodHRwOi8vd3d3Lmlua3NjYXBlLm9yZy9uYW1lc3BhY2VzL2lua3NjYXBlIiB2ZXJzaW9uPSIxLjEiIGlkPSJzdmc1NjAxOCIgaW5rc2NhcGU6dmVyc2lvbj0iMC45Mi4zICgyNDA1NTQ2LCAyMDE4LTAzLTExKSIgc29kaXBvZGk6ZG9jbmFtZT0iYXp1cmVfY29udGFpbmVyLnN2ZyIgeD0iMHB4IiB5PSIwcHgiIHZpZXdCb3g9IjAgMCA2NS41MiA0OC40OSIgeG1sOnNwYWNlPSJwcmVzZXJ2ZSIgd2lkdGg9IjY1LjUxOTk5NyIgaGVpZ2h0PSI0OC40OTAwMDIiPjxtZXRhZGF0YSBpZD0ibWV0YWRhdGE1NTM4Ij48cmRmOlJERj48Y2M6V29yayByZGY6YWJvdXQ9IiI+PGRjOmZvcm1hdD5pbWFnZS9zdmcreG1sPC9kYzpmb3JtYXQ+PGRjOnR5cGUgcmRmOnJlc291cmNlPSJodHRwOi8vcHVybC5vcmcvZGMvZGNtaXR5cGUvU3RpbGxJbWFnZSIvPjxkYzp0aXRsZS8+PC9jYzpXb3JrPjwvcmRmOlJERj48L21ldGFkYXRhPjxkZWZzIGlkPSJkZWZzNTUzNiIvPiYjeGE7PGZpbHRlciBpZD0iZmlsdGVyXzIiPiYjeGE7CTxmZUdhdXNzaWFuQmx1ciBpZD0iZmVHYXVzc2lhbkJsdXI1NTgzOSIgc3RkRGV2aWF0aW9uPSIyIi8+JiN4YTs8L2ZpbHRlcj4mI3hhOzxzb2RpcG9kaTpuYW1lZHZpZXcgYm9yZGVyY29sb3I9IiM2NjY2NjYiIGJvcmRlcm9wYWNpdHk9IjEiIGZpdC1tYXJnaW4tYm90dG9tPSIwIiBmaXQtbWFyZ2luLWxlZnQ9IjAiIGZpdC1tYXJnaW4tcmlnaHQ9IjAiIGZpdC1tYXJnaW4tdG9wPSIwIiBncmlkdG9sZXJhbmNlPSIxMCIgZ3VpZGV0b2xlcmFuY2U9IjEwIiBpZD0ibmFtZWR2aWV3NTYwMjAiIGlua3NjYXBlOmN1cnJlbnQtbGF5ZXI9InN2ZzU2MDE4IiBpbmtzY2FwZTpjeD0iLTMuNDYzNzEzOSIgaW5rc2NhcGU6Y3k9IjIwLjQ1NjkyNyIgaW5rc2NhcGU6cGFnZW9wYWNpdHk9IjAiIGlua3NjYXBlOnBhZ2VzaGFkb3c9IjIiIGlua3NjYXBlOndpbmRvdy1oZWlnaHQ9IjEwMTciIGlua3NjYXBlOndpbmRvdy1tYXhpbWl6ZWQ9IjEiIGlua3NjYXBlOndpbmRvdy13aWR0aD0iMTkyMCIgaW5rc2NhcGU6d2luZG93LXg9Ii04IiBpbmtzY2FwZTp3aW5kb3cteT0iLTgiIGlua3NjYXBlOnpvb209IjguOTExNjU1NyIgb2JqZWN0dG9sZXJhbmNlPSIxMCIgcGFnZWNvbG9yPSIjZmZmZmZmIiBzaG93Z3JpZD0iZmFsc2UiPiYjeGE7CTwvc29kaXBvZGk6bmFtZWR2aWV3PiYjeGE7JiN4YTs8cGF0aCBpZD0icGF0aDU1ODUyIiBpbmtzY2FwZTpjb25uZWN0b3ItY3VydmF0dXJlPSIwIiBzdHlsZT0iZmlsbDojODA0OTk4IiBkPSJNIDMwLjAxLDEyLjMyIDE5LjkyLDE2LjI1IFYgMCBsIDEwLjA5LDMuNTQgeiIvPiYjeGE7JiN4YTs8cGF0aCBpZD0icGF0aDU1ODYwIiBpbmtzY2FwZTpjb25uZWN0b3ItY3VydmF0dXJlPSIwIiBzdHlsZT0iZmlsbDojODA0OTk4IiBkPSJtIDEwLjg4LDIuNzUgdiAxMC42MSBsIDcuNDcsMi44OSBWIDAuMTMgWiBtIDAuNzksOS44MyAtMC40LC0wLjEzIFYgMy42NyBsIDAuNCwtMC4xMyAwLjM5LC0wLjE0IDAuMzksLTAuMTMgdiA5LjU3IGwgLTAuMzksLTAuMTMgeiBtIDEuOTYsMC41MiAtMC41MiwtMC4xMyBWIDMuMTQgbCAwLjUyLC0wLjEzIDAuNTMsLTAuMTMgMC41MiwtMC4xMyB2IDEwLjc0IGwgLTAuNTIsLTAuMTMgeiBtIDIuMzYsMC43OSAtMC42NSwtMC4yNiBWIDIuNDkgbCAwLjY1LC0wLjEzIDAuNjYsLTAuMjcgMC43OCwtMC4yNiB2IDEyLjQ1IGwgLTAuNzgsLTAuMjYgeiIvPiYjeGE7JiN4YTs8cGF0aCBpZD0icGF0aDU1ODY4IiBpbmtzY2FwZTpjb25uZWN0b3ItY3VydmF0dXJlPSIwIiBzdHlsZT0iZmlsbDojODA0OTk4IiBkPSJNIDUzLjQ3LDEyLjMyIDQzLjM4LDE2LjI1IFYgMCBsIDEwLjA5LDMuNTQgeiIvPiYjeGE7JiN4YTs8cGF0aCBpZD0icGF0aDU1ODc2IiBpbmtzY2FwZTpjb25uZWN0b3ItY3VydmF0dXJlPSIwIiBzdHlsZT0iZmlsbDojODA0OTk4IiBkPSJtIDM0LjMzLDIuNzUgdiAxMC42MSBsIDcuNDcsMi44OSBWIDAuMTMgWiBtIDAuNzksOS44MyAtMC40LC0wLjEzIFYgMy42NyBMIDM1LjEyLDMuNTQgMzUuNTEsMy40IDM1LjksMy4yNyB2IDkuNTcgbCAtMC4zOSwtMC4xMyB6IG0gMS45NiwwLjUyIC0wLjUyLC0wLjEzIFYgMy4xNCBsIDAuNTIsLTAuMTMgMC41MywtMC4xMyAwLjUyLC0wLjEzIHYgMTAuNzQgbCAtMC41MiwtMC4xMyB6IG0gMi4zNiwwLjc5IC0wLjY1LC0wLjI2IFYgMi40OSBMIDM5LjQ0LDIuMzYgNDAuMSwyLjA5IDQwLjg4LDEuODMgViAxNC4yOCBMIDQwLjEsMTQuMDIgWiIvPiYjeGE7JiN4YTs8cGF0aCBpZD0icGF0aDU1ODg0IiBpbmtzY2FwZTpjb25uZWN0b3ItY3VydmF0dXJlPSIwIiBzdHlsZT0iZmlsbDojODA0OTk4IiBkPSJNIDMwLjAxLDQ0LjU2IDE5LjkyLDQ4LjQ5IFYgMzIuMjQgbCAxMC4wOSwzLjU0IHoiLz4mI3hhOyYjeGE7PHBhdGggaWQ9InBhdGg1NTg5MiIgaW5rc2NhcGU6Y29ubmVjdG9yLWN1cnZhdHVyZT0iMCIgc3R5bGU9ImZpbGw6IzgwNDk5OCIgZD0iTSAxMC44OCwzNC45OSBWIDQ1LjYgbCA3LjQ3LDIuODkgViAzMi4zNyBaIG0gMC43OSw5LjgzIC0wLjQsLTAuMTMgdiAtOC43OCBsIDAuNCwtMC4xMyAwLjM5LC0wLjE0IDAuMzksLTAuMTMgdiA5LjU3IGwgLTAuMzksLTAuMTMgeiBtIDEuOTYsMC41MiAtMC41MiwtMC4xMyB2IC05LjgzIGwgMC41MiwtMC4xMyAwLjUzLC0wLjEzIDAuNTIsLTAuMTMgViA0NS43MyBMIDE0LjE2LDQ1LjYgWiBtIDIuMzYsMC43OSAtMC42NSwtMC4yNiBWIDM0LjczIGwgMC42NSwtMC4xMyAwLjY2LC0wLjI3IDAuNzgsLTAuMjYgdiAxMi40NSBsIC0wLjc4LC0wLjI2IHoiLz4mI3hhOyYjeGE7PHBhdGggaWQ9InBhdGg1NTkwMCIgaW5rc2NhcGU6Y29ubmVjdG9yLWN1cnZhdHVyZT0iMCIgc3R5bGU9ImZpbGw6IzgwNDk5OCIgZD0iTSA1My40Nyw0NC41NiA0My4zOCw0OC40OSBWIDMyLjI0IGwgMTAuMDksMy41NCB6Ii8+JiN4YTsmI3hhOzxwYXRoIGlkPSJwYXRoNTU5MDgiIGlua3NjYXBlOmNvbm5lY3Rvci1jdXJ2YXR1cmU9IjAiIHN0eWxlPSJmaWxsOiM4MDQ5OTgiIGQ9Ik0gMzQuMzMsMzQuOTkgViA0NS42IGwgNy40NywyLjg5IFYgMzIuMzcgWiBtIDAuNzksOS44MyAtMC40LC0wLjEzIHYgLTguNzggbCAwLjQsLTAuMTMgMC4zOSwtMC4xNCAwLjM5LC0wLjEzIHYgOS41NyBsIC0wLjM5LC0wLjEzIHogbSAxLjk2LDAuNTIgLTAuNTIsLTAuMTMgdiAtOS44MyBsIDAuNTIsLTAuMTMgMC41MywtMC4xMyAwLjUyLC0wLjEzIFYgNDUuNzMgTCAzNy42MSw0NS42IFogbSAyLjM2LDAuNzkgLTAuNjUsLTAuMjYgViAzNC43MyBsIDAuNjUsLTAuMTMgMC42NiwtMC4yNyAwLjc4LC0wLjI2IFYgNDYuNTIgTCA0MC4xLDQ2LjI2IFoiLz4mI3hhOyYjeGE7PHBhdGggaWQ9InBhdGg1NTkxNiIgaW5rc2NhcGU6Y29ubmVjdG9yLWN1cnZhdHVyZT0iMCIgc3R5bGU9ImZpbGw6IzgwNDk5OCIgZD0ibSA0Mi40NiwyOC40NCAtOS45NiwzLjggViAxNi4xMiBsIDkuOTYsMy41NCB6Ii8+JiN4YTsmI3hhOzxwYXRoIGlkPSJwYXRoNTU5MjQiIGlua3NjYXBlOmNvbm5lY3Rvci1jdXJ2YXR1cmU9IjAiIHN0eWxlPSJmaWxsOiM4MDQ5OTgiIGQ9Im0gMjMuMzMsMTguNzQgdiAxMC42MSBsIDcuNDcsMi44OSBWIDE2LjEyIFogbSAwLjc5LDkuODMgLTAuNCwtMC4xMyB2IC04Ljc4IGwgMC40LC0wLjEzIDAuMzksLTAuMTQgMC4zOSwtMC4xMyB2IDkuNTcgTCAyNC41MSwyOC43IFogbSAxLjk2LDAuNjUgLTAuNTIsLTAuMTMgdiAtOS44MyBsIDAuNTIsLTAuMTMgMC41MywtMC4xMyAwLjUyLC0wLjEzIHYgMTAuNzUgbCAtMC41MiwtMC4xNCB6IG0gMi4zNiwwLjc5IC0wLjY1LC0wLjI2IFYgMTguNjEgbCAwLjY1LC0wLjEzIDAuNjYsLTAuMjcgMC43OCwtMC4yNiBWIDMwLjQgTCAyOS4xLDMwLjE0IFoiLz4mI3hhOyYjeGE7PHBhdGggaWQ9InBhdGg1NTkzMiIgaW5rc2NhcGU6Y29ubmVjdG9yLWN1cnZhdHVyZT0iMCIgc3R5bGU9ImZpbGw6IzgwNDk5OCIgZD0ibSAxOS4xMywyOC40NCAtOS45NiwzLjggViAxNi4xMiBsIDkuOTYsMy41NCB6Ii8+JiN4YTsmI3hhOzxwYXRoIGlkPSJwYXRoNTU5NDAiIGlua3NjYXBlOmNvbm5lY3Rvci1jdXJ2YXR1cmU9IjAiIHN0eWxlPSJmaWxsOiM4MDQ5OTgiIGQ9Im0gMCwxOC43NCB2IDEwLjYxIGwgNy40NywyLjg5IFYgMTYuMTIgWiBtIDAuNzksOS44MyAtMC40LC0wLjEzIHYgLTguNzggbCAwLjQsLTAuMTMgMC4zOSwtMC4xNCAwLjM5LC0wLjEzIHYgOS41NyBMIDEuMTgsMjguNyBaIE0gMi43NSwyOS4yMiAyLjIzLDI5LjA5IFYgMTkuMjYgTCAyLjc1LDE5LjEzIDMuMjgsMTkgMy44LDE4Ljg3IFYgMjkuNjIgTCAzLjI4LDI5LjQ4IFogTSA1LjExLDMwLjAxIDQuNDYsMjkuNzUgViAxOC42MSBMIDUuMTEsMTguNDggNS43NywxOC4yMSA2LjU1LDE3Ljk1IFYgMzAuNCBMIDUuNzcsMzAuMTQgWiIvPiYjeGE7JiN4YTs8cGF0aCBpZD0icGF0aDU1OTQ4IiBpbmtzY2FwZTpjb25uZWN0b3ItY3VydmF0dXJlPSIwIiBzdHlsZT0iZmlsbDojODA0OTk4IiBkPSJtIDY1LjUyLDI4LjQ0IC05Ljk2LDMuOCBWIDE2LjEyIGwgOS45NiwzLjU0IHoiLz4mI3hhOyYjeGE7JiN4YTsmI3hhOyYjeGE7JiN4YTsmI3hhOyYjeGE7JiN4YTsmI3hhOyYjeGE7JiN4YTsmI3hhOyYjeGE7JiN4YTsmI3hhOzxwYXRoIGlkPSJwYXRoNTYwMTIiIGlua3NjYXBlOmNvbm5lY3Rvci1jdXJ2YXR1cmU9IjAiIHN0eWxlPSJmaWxsOiM4MDQ5OTgiIGQ9Im0gNDYuMzksMTguNzQgdiAxMC42MSBsIDcuNDcsMi44OSBWIDE2LjEyIFogbSAwLjc5LDkuODMgLTAuNCwtMC4xMyB2IC04Ljc4IGwgMC40LC0wLjEzIDAuMzksLTAuMTQgMC4zOSwtMC4xMyB2IDkuNTcgTCA0Ny41NywyOC43IFogbSAxLjk2LDAuNjUgLTAuNTIsLTAuMTMgdiAtOS44MyBsIDAuNTIsLTAuMTMgMC41MywtMC4xMyAwLjUyLC0wLjEzIHYgMTAuNzUgbCAtMC41MiwtMC4xNCB6IG0gMi4zNiwwLjc5IC0wLjY1LC0wLjI2IFYgMTguNjEgbCAwLjY1LC0wLjEzIDAuNjYsLTAuMjcgMC43OCwtMC4yNiBWIDMwLjQgbCAtMC43OCwtMC4yNiB6Ii8+JiN4YTs8L3N2Zz4=;" vertex="1" parent="1">
          <mxGeometry x="570" y="240" width="110" height="80" as="geometry" />
        </mxCell>
        <mxCell id="hJ-bLelYIH7DVtIRV5_r-10" value="Save Docker Image&#xa; on DockerHub" style="shape=image;verticalLabelPosition=bottom;labelBackgroundColor=#ffffff;verticalAlign=top;aspect=fixed;imageAspect=0;image=data:image/svg+xml,PHN2ZyB4bWxuczpkYz0iaHR0cDovL3B1cmwub3JnL2RjL2VsZW1lbnRzLzEuMS8iIHhtbG5zOmNjPSJodHRwOi8vY3JlYXRpdmVjb21tb25zLm9yZy9ucyMiIHhtbG5zOnJkZj0iaHR0cDovL3d3dy53My5vcmcvMTk5OS8wMi8yMi1yZGYtc3ludGF4LW5zIyIgeG1sbnM6c3ZnPSJodHRwOi8vd3d3LnczLm9yZy8yMDAwL3N2ZyIgeG1sbnM9Imh0dHA6Ly93d3cudzMub3JnLzIwMDAvc3ZnIiB4bWxuczpzb2RpcG9kaT0iaHR0cDovL3NvZGlwb2RpLnNvdXJjZWZvcmdlLm5ldC9EVEQvc29kaXBvZGktMC5kdGQiIHhtbG5zOmlua3NjYXBlPSJodHRwOi8vd3d3Lmlua3NjYXBlLm9yZy9uYW1lc3BhY2VzL2lua3NjYXBlIiB2ZXJzaW9uPSIxLjEiIGlkPSJzdmc3OTMzNSIgaW5rc2NhcGU6dmVyc2lvbj0iMC45Mi4zICgyNDA1NTQ2LCAyMDE4LTAzLTExKSIgc29kaXBvZGk6ZG9jbmFtZT0iZG9ja2VyLnN2ZyIgeD0iMHB4IiB5PSIwcHgiIHZpZXdCb3g9IjAgMCA5OS4yMiA4My4yMzk4NCIgeG1sOnNwYWNlPSJwcmVzZXJ2ZSIgd2lkdGg9Ijk5LjIyMDAwMSIgaGVpZ2h0PSI4My4yMzk4MzgiPjxtZXRhZGF0YSBpZD0ibWV0YWRhdGExMTIxIj48cmRmOlJERj48Y2M6V29yayByZGY6YWJvdXQ9IiI+PGRjOmZvcm1hdD5pbWFnZS9zdmcreG1sPC9kYzpmb3JtYXQ+PGRjOnR5cGUgcmRmOnJlc291cmNlPSJodHRwOi8vcHVybC5vcmcvZGMvZGNtaXR5cGUvU3RpbGxJbWFnZSIvPjxkYzp0aXRsZS8+PC9jYzpXb3JrPjwvcmRmOlJERj48L21ldGFkYXRhPjxkZWZzIGlkPSJkZWZzMTExOSI+JiN4YTsJJiN4YTsmI3hhOwkmI3hhOyYjeGE7CSYjeGE7CSYjeGE7CSYjeGE7JiN4YTsJJiN4YTsJJiN4YTsJJiN4YTsmI3hhOwkmI3hhOwkmI3hhOwkmI3hhOyYjeGE7CSYjeGE7CSYjeGE7CSYjeGE7JiN4YTsJJiN4YTsmI3hhOwkmI3hhOwkmI3hhOwkmI3hhOyYjeGE7CSYjeGE7CSYjeGE7CSYjeGE7JiN4YTsJJiN4YTsJJiN4YTsJJiN4YTsmI3hhOwkmI3hhOwkmI3hhOwkmI3hhOyYjeGE7CSYjeGE7CSYjeGE7CSYjeGE7JiN4YTsJJiN4YTsJJiN4YTsJJiN4YTsmI3hhOwkmI3hhOwkmI3hhOwkmI3hhOyYjeGE7CSYjeGE7CSYjeGE7CSYjeGE7JiN4YTsJJiN4YTsJJiN4YTsJJiN4YTsmI3hhOwkmI3hhOyYjeGE7CSYjeGE7JiN4YTsJJiN4YTsmI3hhOwkmI3hhOyYjeGE7CSYjeGE7JiN4YTsJCSYjeGE7CSYjeGE7CQkmI3hhOwkmI3hhOwkJJiN4YTsJJiN4YTsJCSYjeGE7CSYjeGE7CQkmI3hhOwkmI3hhOwkJJiN4YTsJJiN4YTsJCSYjeGE7CSYjeGE7CQkmI3hhOwkmI3hhOwkJJiN4YTsJJiN4YTsJCSYjeGE7CSYjeGE7CQkmI3hhOwkmI3hhOwkJJiN4YTsJJiN4YTsJCSYjeGE7CSYjeGE7CQkmI3hhOwkmI3hhOwkJJiN4YTsJJiN4YTsJCSYjeGE7CSYjeGE7CQkmI3hhOwkmI3hhOwkJJiN4YTsJJiN4YTsJCSYjeGE7CSYjeGE7CQkmI3hhOwkmI3hhOwkJCSYjeGE7CQkmI3hhOwkJCSYjeGE7CQkmI3hhOwkJCSYjeGE7CQkmI3hhOwkJCSYjeGE7CQk8L2RlZnM+JiN4YTs8ZmlsdGVyIGlkPSJmaWx0ZXJfMiI+JiN4YTsJPGZlR2F1c3NpYW5CbHVyIGlkPSJmZUdhdXNzaWFuQmx1cjc5MTUwIiBzdGREZXZpYXRpb249IjIiLz4mI3hhOzwvZmlsdGVyPiYjeGE7PHNvZGlwb2RpOm5hbWVkdmlldyBib3JkZXJjb2xvcj0iIzY2NjY2NiIgYm9yZGVyb3BhY2l0eT0iMSIgZml0LW1hcmdpbi1ib3R0b209IjAiIGZpdC1tYXJnaW4tbGVmdD0iMCIgZml0LW1hcmdpbi1yaWdodD0iMCIgZml0LW1hcmdpbi10b3A9IjAiIGdyaWR0b2xlcmFuY2U9IjEwIiBndWlkZXRvbGVyYW5jZT0iMTAiIGlkPSJuYW1lZHZpZXc3OTMzNyIgaW5rc2NhcGU6Y3VycmVudC1sYXllcj0ic3ZnNzkzMzUiIGlua3NjYXBlOmN4PSItMjQuMjM0MzIxIiBpbmtzY2FwZTpjeT0iNTUuNzcxNTY5IiBpbmtzY2FwZTpwYWdlb3BhY2l0eT0iMCIgaW5rc2NhcGU6cGFnZXNoYWRvdz0iMiIgaW5rc2NhcGU6d2luZG93LWhlaWdodD0iMTAxNyIgaW5rc2NhcGU6d2luZG93LW1heGltaXplZD0iMSIgaW5rc2NhcGU6d2luZG93LXdpZHRoPSIxOTIwIiBpbmtzY2FwZTp3aW5kb3cteD0iLTgiIGlua3NjYXBlOndpbmRvdy15PSItOCIgaW5rc2NhcGU6em9vbT0iMy4yOTk1NDQ5IiBvYmplY3R0b2xlcmFuY2U9IjEwIiBwYWdlY29sb3I9IiNmZmZmZmYiIHNob3dncmlkPSJmYWxzZSI+JiN4YTsJPC9zb2RpcG9kaTpuYW1lZHZpZXc+JiN4YTsmI3hhOzxwYXRoIGlkPSJwYXRoNzkxNjMiIGlua3NjYXBlOmNvbm5lY3Rvci1jdXJ2YXR1cmU9IjAiIHN0eWxlPSJmaWxsOiMzZjU3NjUiIGQ9Im0gNzMuNDYsNzggYyAyLjIzLC0xLjkxIDQuNDYsLTMuODMgNi42OSwtNS43NSAwLjc2LC0wLjY2IDEuNTksLTEuMzQgMi4zNSwtMi4wMyAtMC42MSwtMC43NiAtMS42MiwtMS4zMSAtMi40OCwtMS42NCAtMS43MywtMC42NiAtMy40NCwtMC40NCAtNS4wMywwLjQ4IC0yLjA5LDEuMiAtMi45NywzLjEyIC0yLjg5LDUuNSAwLjAzLDAuOTQgMC4yOCwxLjg0IDAuNzgsMi42NCAwLjE3LDAuMjggMC4zNywwLjU1IDAuNTgsMC44IHogbSAyLjU4LDEuODEgYyAxLjEsMC4zOCAyLjM0LDAuMzMgMy40NywwLjE0IDAuNTcsLTAuMjUgMi4wNCwtMC44OSAyLjU4LC0wLjggbCAwLjA4LDAuMDIgMC4wOCwwLjA0IGMgMC4zMywwLjE2IDAuNjQsMC4zOCAwLjgxLDAuNzIgMC40LDAuNzkgMC4yMSwxLjU3IC0wLjU3LDIuMDIgbCAtMC4yNSwwLjE1IGMgLTIuODUsMS42NSAtNS44OSwxLjQyIC04LjczLC0wLjEyIC0xLjM2LC0wLjczIC0yLjQsLTEuODIgLTMuMTcsLTMuMTYgbCAtMC4xOCwtMC4zMSBjIC0xLjgzLC0zLjE3IC0xLjU4LC02LjUgMC40OCwtOS41MiAwLjcyLC0xLjA0IDEuNjUsLTEuODUgMi43NCwtMi40OCBsIDAuNDEsLTAuMjMgYyAyLjY5LC0xLjU1IDUuNTcsLTEuNDUgOC4zMywtMC4wOSAxLjQ4LDAuNzMgMi42OCwxLjgzIDMuNTEsMy4yNiBsIDAuMTUsMC4yNiBjIDAuNiwxLjA0IC0wLjE4LDEuOTUgLTAuOTgsMi41NyAtMC45NCwwLjcyIC0xLjg4LDEuNTkgLTIuNzgsMi4zNiAtMS45OSwxLjcyIC0zLjk4LDMuNDUgLTUuOTgsNS4xNyB6IE0gOTcuNDEsNjUuMzkgaCAwLjMgYyAwLjksMCAxLjUxLDAuNjEgMS41MSwxLjUgMCwxLjI1IC0xLjIsMS41NyAtMi4yMiwxLjU3IC0xLjM2LDAgLTIuNjQsMC44MSAtMy41NywxLjczIC0xLjE3LDEuMTUgLTEuNjcsMi42MSAtMS42Nyw0LjIyIHYgNy4yOCBjIDAsMC44MyAtMC41MiwxLjUxIC0xLjM5LDEuNTEgaCAtMC4yNCBjIC0wLjg2LDAgLTEuMzgsLTAuNjggLTEuMzgsLTEuNTEgdiAtNy43IGMgMCwtMi45NSAxLjQ0LC01LjM2IDMuODQsLTcuMDYgMS40MywtMS4wMSAzLjA3LC0xLjU0IDQuODIsLTEuNTQgeiBtIC0zNy40Nyw1LjE2IGMgMS4xNiwtMS4xNyAyLjM0LC0yLjMzIDMuNTIsLTMuNDggMC4zMywtMC4zMiAxLjU4LC0xLjY4IDIuMDgsLTEuNjggaCAwLjUzIGwgMC4wNiwwLjAxIGMgMC42OSwwLjE0IDEuMiwwLjU4IDEuMiwxLjMxIHYgMC4zIGMgMCwwLjUgLTAuNTksMS4wOSAtMC45MSwxLjQzIC0wLjY5LDAuNzQgLTEuNDIsMS40NCAtMi4xMywyLjE2IGwgLTMuNjMsMy42OSBjIDEuNTcsMS41NiAzLjEzLDMuMTMgNC42OCw0LjcxIDAuNDMsMC40NCAwLjg2LDAuODggMS4yOCwxLjMyIDAuMTUsMC4xNiAwLjM3LDAuMzUgMC41LDAuNTcgMC4xMywwLjIxIDAuMjEsMC40NCAwLjIxLDAuNjggdiAwLjMxIGwgLTAuMDEsMC4wNyBjIC0wLjE3LDAuNjkgLTAuNjEsMS4yNCAtMS4zNywxLjI0IGggLTAuMjQgYyAtMC41LDAgLTEuMDYsLTAuNTYgLTEuNCwtMC44OCAtMC43LC0wLjY2IC0xLjM4LC0xLjM2IC0yLjA3LC0yLjAzIGwgLTIuMzEsLTIuMjcgdiAzLjYyIGMgMCwwLjg0IC0wLjUyLDEuNTEgLTEuMzgsMS41MSBoIC0wLjI0IGMgLTAuODYsMCAtMS4zOCwtMC42NyAtMS4zOCwtMS41MSBWIDYxLjIyIGMgMCwtMC44MyAwLjUyLC0xLjUgMS4zOCwtMS41IGggMC4yNCBjIDAuODYsMCAxLjM4LDAuNjcgMS4zOCwxLjUgdiA5LjMzIHogbSAtOS43NSwtMi4wMyBjIC0wLjQ2LC0wLjIxIC0xLjMxLC0wLjI5IC0xLjgsLTAuMyAtMi41MSwtMC4xIC00LjMzLDEuMzIgLTUuNCwzLjUzIC0wLjM2LDAuNzcgLTAuNTMsMS41OCAtMC41MywyLjQyIDAsMi41OCAxLjM1LDQuMzggMy42NSw1LjQ4IDAuODQsMC40IDEuOTIsMC40OCAyLjg0LDAuNDggMC44MSwwIDEuOTUsLTAuNSAyLjY2LC0wLjg0IGwgMC4xMywtMC4wNiBoIDAuNTYgbCAwLjA2LDAuMDIgYyAwLjY4LDAuMTQgMS4yLDAuNTcgMS4yLDEuMzEgdiAwLjMgYyAwLDEuODMgLTMuMzUsMi4yNSAtNC42MywyLjM0IC00LjUsMC4zMSAtNy44NywtMi4xNyAtOS4xNSwtNi40NiAtMC4yMywtMC43NSAtMC4zMywtMS40OSAtMC4zMywtMi4yNyB2IC0wLjYgYyAwLC0zLjI2IDEuNjIsLTUuODQgNC40MiwtNy41IDEuMywtMC43NyAyLjczLC0xLjE2IDQuMjUsLTEuMTYgaCAwLjU5IGMgMS42LDAgMy4wOCwwLjQ1IDQuNCwxLjM2IGwgMC4xMSwwLjA3IDAuMDcsMC4xMiBjIDAuMTQsMC4yMyAwLjI3LDAuNTEgMC4yNywwLjc5IHYgMC4zIGMgMCwwLjc2IC0wLjU4LDEuMTggLTEuMjcsMS4zMSBsIC0wLjA2LDAuMDEgaCAtMC4xOCBjIC0wLjQ1LDAgLTEuNDYsLTAuNDYgLTEuODYsLTAuNjUgeiBtIC0yNy40Miw1LjcxIGMgMCwyLjI5IDEuMTIsMy45NyAzLjA1LDUuMTUgMC45MSwwLjU2IDEuOSwwLjgxIDIuOTYsMC44MSAyLjI2LDAgMy45MywtMS4xNSA1LjA5LC0zLjA1IDAuNTYsLTAuOTEgMC44MSwtMS45MSAwLjgxLC0yLjk3IDAsLTIuMTIgLTEuMDMsLTMuNzUgLTIuNzgsLTQuOTIgLTAuOTYsLTAuNjUgLTIuMDIsLTAuOTcgLTMuMTgsLTAuOTcgLTIuNTIsMCAtNC4zMywxLjI3IC01LjQyLDMuNTMgLTAuMzcsMC43NiAtMC41MywxLjU4IC0wLjUzLDIuNDIgeiBtIDUuNjUsLTguOTYgaCAwLjQyIGMgMy40OSwwIDYuMTQsMS42OSA3LjgxLDQuNzMgMC42OCwxLjIyIDEuMDMsMi41NCAxLjAzLDMuOTQgdiAwLjU5IGMgMCwzLjI2IC0xLjYsNS44NiAtNC40MSw3LjUxIC0xLjMsMC43NiAtMi43NCwxLjE1IC00LjI1LDEuMTUgaCAtMC42IGMgLTMuMjYsMCAtNS44NSwtMS42MSAtNy41LC00LjQxIC0wLjc3LC0xLjMgLTEuMTYsLTIuNzQgLTEuMTYsLTQuMjUgdiAtMC41OSBjIDAsLTMuMjcgMS42MiwtNS44NSA0LjQxLC03LjUxIDEuMzEsLTAuNzcgMi43NCwtMS4xNiA0LjI1LC0xLjE2IHogTSAzLjA4LDc0LjIzIGMgMCwyLjM2IDEuMTQsNC4xMyAzLjIsNS4yNiAwLjg0LDAuNDUgMS43NCwwLjcgMi42OSwwLjcgMi4zMSwwIDQuMDMsLTEuMDkgNS4yMSwtMy4wNSAwLjU1LC0wLjkxIDAuODEsLTEuOTEgMC44MSwtMi45NyAwLC0yLjA0IC0wLjk3LC0zLjYzIC0yLjYyLC00LjgyIC0wLjk5LC0wLjcxIC0yLjEyLC0xLjA3IC0zLjM0LC0xLjA3IC0yLjUyLDAgLTQuMzMsMS4yNyAtNS40MiwzLjUzIC0wLjM3LDAuNzYgLTAuNTMsMS41OCAtMC41MywyLjQyIHogbSAxMS45MSwtNi43MiB2IC02LjM1IGMgMCwtMC44MyAwLjUyLC0xLjUgMS4zOCwtMS41IGggMC4yNCBjIDAuODcsMCAxLjM4LDAuNjcgMS4zOCwxLjUgdiAxMy4zNyBjIDAsMy4yNiAtMS42MSw1Ljg1IC00LjQxLDcuNTEgLTEuMywwLjc2IC0yLjc0LDEuMTYgLTQuMjUsMS4xNiBIIDguNzMgQyA1LjQ3LDgzLjIgMi44OCw4MS41OCAxLjIzLDc4Ljc4IDAuNDYsNzcuNDggMC4wNyw3Ni4wNCAwLjA3LDc0LjUzIHYgLTAuNTkgYyAwLC0zLjI2IDEuNjEsLTUuODYgNC40MSwtNy41MSAxLjMxLC0wLjc3IDIuNzQsLTEuMTYgNC4yNSwtMS4xNiBoIDAuNiBjIDIuMjEsMCA0LjA4LDAuODUgNS42NiwyLjI0IHoiLz4mI3hhOyYjeGE7PHBhdGggaWQ9InBhdGg3OTE3MSIgaW5rc2NhcGU6Y29ubmVjdG9yLWN1cnZhdHVyZT0iMCIgc3R5bGU9ImZpbGw6IzM5NGQ1NCIgZD0ibSA1Ny4yMywxNy43NSBoIDguODcgdiA5LjA3IGggNC40OSBjIDIuMDcsMCA0LjIsLTAuMzcgNi4xNiwtMS4wNCAwLjk2LC0wLjMyIDIuMDUsLTAuNzggMywtMS4zNSAtMS4yNiwtMS42NCAtMS44OSwtMy43IC0yLjA4LC01Ljc0IC0wLjI2LC0yLjc2IDAuMywtNi4zNyAyLjE3LC04LjUzIGwgMC45NCwtMS4wOCAxLjExLDAuODkgYyAyLjgsMi4yNSA1LjE1LDUuMzkgNS41Niw4Ljk3IDMuMzcsLTAuOTkgNy4zMywtMC43NiAxMC4zLDAuOTYgbCAxLjIyLDAuNyAtMC42NCwxLjI1IEMgOTUuODEsMjYuNzYgOTAuNTYsMjguMjcgODUuNDMsMjggNzcuNzUsNDcuMTQgNjEuMDIsNTYuMiA0MC43NSw1Ni4yIDMwLjI3LDU2LjIgMjAuNjYsNTIuMjggMTUuMTgsNDIuOTggTCAxNS4wOSw0Mi44MyAxNC4zLDQxLjIxIEMgMTIuNDUsMzcuMTIgMTEuODMsMzIuNjQgMTIuMjUsMjguMTYgbCAwLjEyLC0xLjM0IGggNy41OSB2IC05LjA3IGggOC44NyBWIDguODcgSCA0Ni41OCBWIDAgaCAxMC42NCB6Ii8+JiN4YTs8cGF0aCBkPSJtIDg1Ljk4MDMsMjEuMTAwMzMxIGMgMC41OSwtNC42MiAtMi44NywtOC4yNSAtNS4wMiwtOS45OCAtMi40NywyLjg2IC0yLjg1LDEwLjM1IDEuMDMsMTMuNTEgLTIuMTcsMS45MiAtNi43MywzLjY2IC0xMS40LDMuNjYgaCAtNTYuODcgYyAtMC40NSw0Ljg4IDAuNDEsOS4zNyAyLjM2LDEzLjIyIGwgMC42NSwxLjE4IGMgMC40MSwwLjY5IDAuODYsMS4zNiAxLjM0LDIuMDEgdiAwIGMgMi4zNCwwLjE1IDQuNDksMC4yIDYuNDYsMC4xNiAwLDAgMCwwIDAuMDEsMCAzLjg3LC0wLjA5IDcuMDMsLTAuNTQgOS40MywtMS4zNyAwLjM2LC0wLjEzIDAuNzUsMC4wNiAwLjg3LDAuNDIgMC4xMiwwLjM1IC0wLjA3LDAuNzQgLTAuNDIsMC44NyAtMC4zMiwwLjExIC0wLjY1LDAuMjEgLTEsMC4zMSB2IDAgYyAtMS44OSwwLjU0IC0zLjkxLDAuOSAtNi41MiwxLjA2IDAuMTYsMCAtMC4xNiwwLjAyIC0wLjE2LDAuMDIgLTAuMDksMC4wMSAtMC4yLDAuMDIgLTAuMjksMC4wMyAtMS4wMywwLjA1IC0yLjE0LDAuMDcgLTMuMjcsMC4wNyAtMS4yNCwwIC0yLjQ2LC0wLjAzIC0zLjgzLC0wLjEgbCAtMC4wMywwLjAzIGMgNC43Myw1LjMyIDEyLjE0LDguNTIgMjEuNDMsOC41MiAxOS42NSwwIDM2LjMyLC04LjcyIDQzLjcsLTI4LjI4IDUuMjQsMC41NCAxMC4yNywtMC43OSAxMi41NiwtNS4yNiAtMy42NCwtMi4xMSAtOC4zMywtMS40NCAtMTEuMDMsLTAuMDggeiIgc3R5bGU9ImZpbGw6IzAwYWFkYSIgaW5rc2NhcGU6Y29ubmVjdG9yLWN1cnZhdHVyZT0iMCIgaWQ9InBhdGg3OTE4MSIvPiYjeGE7PHBhdGggZD0ibSA4NS45Nzk3NiwyMS4xMDI3MjEgYyAwLjU5LC00LjYzIC0yLjg3LC04LjI2IC01LjAxLC05Ljk4IC0yLjQ4LDIuODYgLTIuODYsMTAuMzUgMS4wMiwxMy41MSAtMi4xNywxLjkyIC02LjczLDMuNjYgLTExLjQsMy42NiBoIC01My41IGMgLTAuMjMsNy40NyAyLjU0LDEzLjE0IDcuNDQsMTYuNTcgMCwwIDAsMCAwLjAxLDAgMy44NywtMC4wOSA3LjAzLC0wLjU1IDkuNDMsLTEuMzggMC4zNiwtMC4xMiAwLjc1LDAuMDcgMC44NywwLjQzIDAuMTIsMC4zNSAtMC4wNywwLjc0IC0wLjQyLDAuODYgLTAuMzIsMC4xMiAtMC42NSwwLjIyIC0xLDAuMzIgdiAwIGMgLTEuODksMC41MyAtNC4wOCwwLjk0IC02LjY5LDEuMTEgMCwwIC0wLjA3LC0wLjA3IC0wLjA3LC0wLjA2IDYuNjksMy40MyAxNi4zOSwzLjQxIDI3LjUxLC0wLjg2IDEyLjQ3LC00Ljc5IDI0LjA3LC0xMy45MSAzMi4xNiwtMjQuMzUgLTAuMTIsMC4wNSAtMC4yNCwwLjExIC0wLjM1LDAuMTcgeiIgc3R5bGU9ImZpbGw6IzI0YjhlYiIgaW5rc2NhcGU6Y29ubmVjdG9yLWN1cnZhdHVyZT0iMCIgaWQ9InBhdGg3OTE4OSIvPiYjeGE7PHBhdGggZD0ibSAxMy44MzEyMywzNC4yMjAzMzEgYyAwLjM1LDIuNjEgMS4xMiw1LjA2IDIuMjUsNy4yOCBsIDAuNjUsMS4xOSBjIDAuNDEsMC42OSAwLjg1LDEuMzYgMS4zNCwyLjAxIDIuMzQsMC4xNSA0LjQ5LDAuMiA2LjQ2LDAuMTYgMy44OCwtMC4wOSA3LjA0LC0wLjU0IDkuNDQsLTEuMzggMC4zNiwtMC4xMiAwLjc0LDAuMDcgMC44NywwLjQzIDAuMTIsMC4zNSAtMC4wNywwLjc0IC0wLjQyLDAuODcgLTAuMzIsMC4xMSAtMC42NiwwLjIxIC0xLDAuMzEgdiAwIGMgLTEuODksMC41NCAtNC4wNywwLjkyIC02LjY4LDEuMDggLTAuMDksMC4wMSAtMC4yNSwwLjAxIC0wLjM0LDAuMDIgLTEuMDIsMC4wNSAtMi4xMiwwLjA5IC0zLjI2LDAuMDkgLTEuMjQsMCAtMi41MSwtMC4wMiAtMy44NywtMC4wOSA0Ljc0LDUuMzIgMTIuMTksOC41MyAyMS40OCw4LjUzIDE2LjgyLDAgMzEuNDYsLTYuMzkgMzkuOTYsLTIwLjUgeiIgc3R5bGU9ImZpbGw6IzAwOGJiOCIgaW5rc2NhcGU6Y29ubmVjdG9yLWN1cnZhdHVyZT0iMCIgaWQ9InBhdGg3OTE5NyIvPiYjeGE7PHBhdGggZD0ibSAxNy42MDM4NiwzNC4yMTgzNDEgYyAxLjAxLDQuNTkgMy40Miw4LjE5IDYuOTMsMTAuNjQgMy44OCwtMC4wOCA3LjA0LC0wLjU0IDkuNDQsLTEuMzcgMC4zNSwtMC4xMyAwLjc0LDAuMDYgMC44NywwLjQyIDAuMTIsMC4zNiAtMC4wNywwLjc0IC0wLjQzLDAuODcgLTAuMzIsMC4xMSAtMC42NSwwLjIxIC0wLjk5LDAuMzEgdiAwIGMgLTEuODksMC41NCAtNC4xMiwwLjkyIC02LjczLDEuMDkgNi42OSwzLjQzIDE2LjM2LDMuMzggMjcuNDcsLTAuODkgNi43MywtMi41OSAxMy4yLC02LjQzIDE5LjAxLC0xMS4wNyB6IiBzdHlsZT0iZmlsbDojMDM5YmM2IiBpbmtzY2FwZTpjb25uZWN0b3ItY3VydmF0dXJlPSIwIiBpZD0icGF0aDc5MjA1Ii8+JiN4YTsmI3hhOzxwYXRoIGlkPSJwYXRoNzkyMTQiIGlua3NjYXBlOmNvbm5lY3Rvci1jdXJ2YXR1cmU9IjAiIHN0eWxlPSJmaWxsOiMzOTRkNTQiIGQ9Im0gMjMuMTYsNDYuMjUgYyAxLjEzLDAgMi4yMSwtMC4wMyAzLjI0LC0wLjA5IDAuMDksLTAuMDEgMC4xNywtMC4wMSAwLjI2LC0wLjAyIDAuMDEsMCAwLjAxLDAgMC4wMSwwIDIuNjEsLTAuMTYgNC44NywtMC41MSA2Ljc1LC0xLjA1IHYgMCBjIDAuMzUsLTAuMDkgMC42OCwtMC4yIDEsLTAuMzEgMC4zNSwtMC4xMiAwLjU0LC0wLjUxIDAuNDIsLTAuODcgLTAuMTIsLTAuMzUgLTAuNTEsLTAuNTQgLTAuODcsLTAuNDIgLTIuNCwwLjgzIC01LjU2LDEuMjkgLTkuNDMsMS4zNyB2IDAgYyAtMS45OCwwLjA1IC00LjEzLDAgLTYuNDcsLTAuMTUgdiAwIGMgLTAuMTIsLTAuMDEgLTAuMjQsLTAuMDIgLTAuMzYsLTAuMDMgLTAuMzcsLTAuMDIgLTAuNywwLjI2IC0wLjcyLDAuNjQgLTAuMDMsMC4zNyAwLjI1LDAuNyAwLjYzLDAuNzMgMC40OCwwLjAzIDAuOTUsMC4wNiAxLjQxLDAuMDggMC4wNywwIDAuMTQsMC4wMSAwLjIyLDAuMDEgMS4zNiwwLjA3IDIuNjcsMC4xMSAzLjkxLDAuMTEgeiIvPiYjeGE7PHBhdGggZD0ibSAyNy44ODI2LDE5Ljg2OTIzMSBoIDAuNjEgdiA2LjQgaCAtMC42MSB6IG0gLTEuMTYsMCBoIDAuNjMgdiA2LjQgaCAtMC42MyB6IG0gLTEuMTcsMCBoIDAuNjMgdiA2LjQgaCAtMC42MyB6IG0gLTEuMTYsMCBoIDAuNjMgdiA2LjQgaCAtMC42MyB6IG0gLTEuMTcsMCBoIDAuNjMgdiA2LjQgaCAtMC42MyB6IG0gLTEuMTQsMCBoIDAuNjEgdiA2LjQgaCAtMC42MSB6IG0gLTAuNjQsLTAuNjQgaCA3LjY5IHYgNy42OSBoIC03LjY5IHoiIHN0eWxlPSJmaWxsOiMwMGFjZDMiIGlua3NjYXBlOmNvbm5lY3Rvci1jdXJ2YXR1cmU9IjAiIGlkPSJwYXRoNzkyMjQiLz4mI3hhOzxwYXRoIGQ9Im0gMzYuNzU0NSwxMC45OTYwNjEgaCAwLjYxIHYgNi40MSBoIC0wLjYxIHogbSAtMS4xNiwwIGggMC42MyB2IDYuNDEgaCAtMC42MyB6IG0gLTEuMTcsMCBoIDAuNjMgdiA2LjQxIGggLTAuNjMgeiBtIC0xLjE2LDAgaCAwLjYzIHYgNi40MSBoIC0wLjYzIHogbSAtMS4xNywwIGggMC42MyB2IDYuNDEgaCAtMC42MyB6IG0gLTEuMTQsMCBoIDAuNjEgdiA2LjQxIGggLTAuNjEgeiBtIC0wLjY0LC0wLjY0IGggNy42OSB2IDcuNjkgaCAtNy42OSB6IiBzdHlsZT0iZmlsbDojMDBhY2QzIiBpbmtzY2FwZTpjb25uZWN0b3ItY3VydmF0dXJlPSIwIiBpZD0icGF0aDc5MjMyIi8+JiN4YTs8cGF0aCBkPSJtIDM2Ljc1NDUsMTkuODY5MjMxIGggMC42MSB2IDYuNCBoIC0wLjYxIHogbSAtMS4xNiwwIGggMC42MyB2IDYuNCBoIC0wLjYzIHogbSAtMS4xNywwIGggMC42MyB2IDYuNCBoIC0wLjYzIHogbSAtMS4xNiwwIGggMC42MyB2IDYuNCBoIC0wLjYzIHogbSAtMS4xNywwIGggMC42MyB2IDYuNCBoIC0wLjYzIHogbSAtMS4xNCwwIGggMC42MSB2IDYuNCBoIC0wLjYxIHogbSAtMC42NCwtMC42NCBoIDcuNjkgdiA3LjY5IGggLTcuNjkgeiIgc3R5bGU9ImZpbGw6IzIwYzJlZiIgaW5rc2NhcGU6Y29ubmVjdG9yLWN1cnZhdHVyZT0iMCIgaWQ9InBhdGg3OTI0MCIvPiYjeGE7PHBhdGggZD0ibSA0NS42Mjg5LDE5Ljg2OTIzMSBoIDAuNjEgdiA2LjQgaCAtMC42MSB6IG0gLTEuMTYsMCBoIDAuNjMgdiA2LjQgaCAtMC42MyB6IG0gLTEuMTcsMCBoIDAuNjMgdiA2LjQgaCAtMC42MyB6IG0gLTEuMTYsMCBoIDAuNjMgdiA2LjQgaCAtMC42MyB6IG0gLTEuMTcsMCBoIDAuNjMgdiA2LjQgaCAtMC42MyB6IG0gLTEuMTQsMCBoIDAuNjEgdiA2LjQgaCAtMC42MSB6IG0gLTAuNjQsLTAuNjQgaCA3LjY5IHYgNy42OSBoIC03LjY5IHoiIHN0eWxlPSJmaWxsOiMwMGFjZDMiIGlua3NjYXBlOmNvbm5lY3Rvci1jdXJ2YXR1cmU9IjAiIGlkPSJwYXRoNzkyNDgiLz4mI3hhOzxwYXRoIGQ9Im0gNDUuNjI4OSwxMC45OTYwNjEgaCAwLjYxIHYgNi40MSBoIC0wLjYxIHogbSAtMS4xNiwwIGggMC42MyB2IDYuNDEgaCAtMC42MyB6IG0gLTEuMTcsMCBoIDAuNjMgdiA2LjQxIGggLTAuNjMgeiBtIC0xLjE2LDAgaCAwLjYzIHYgNi40MSBoIC0wLjYzIHogbSAtMS4xNywwIGggMC42MyB2IDYuNDEgaCAtMC42MyB6IG0gLTEuMTQsMCBoIDAuNjEgdiA2LjQxIGggLTAuNjEgeiBtIC0wLjY0LC0wLjY0IGggNy42OSB2IDcuNjkgaCAtNy42OSB6IiBzdHlsZT0iZmlsbDojMjBjMmVmIiBpbmtzY2FwZTpjb25uZWN0b3ItY3VydmF0dXJlPSIwIiBpZD0icGF0aDc5MjU2Ii8+JiN4YTs8cGF0aCBkPSJtIDU0LjUwMDgsMTkuODY5MjMxIGggMC42MSB2IDYuNCBoIC0wLjYxIHogbSAtMS4xNiwwIGggMC42MyB2IDYuNCBoIC0wLjYzIHogbSAtMS4xNywwIGggMC42MyB2IDYuNCBoIC0wLjYzIHogbSAtMS4xNiwwIGggMC42MyB2IDYuNCBoIC0wLjYzIHogbSAtMS4xNywwIGggMC42MyB2IDYuNCBoIC0wLjYzIHogbSAtMS4xNCwwIGggMC42MSB2IDYuNCBoIC0wLjYxIHogbSAtMC42NCwtMC42NCBoIDcuNjkgdiA3LjY5IGggLTcuNjkgeiIgc3R5bGU9ImZpbGw6IzIwYzJlZiIgaW5rc2NhcGU6Y29ubmVjdG9yLWN1cnZhdHVyZT0iMCIgaWQ9InBhdGg3OTI2NCIvPiYjeGE7PHBhdGggZD0ibSA1NC41MDA4LDEwLjk5NjA2MSBoIDAuNjEgdiA2LjQxIGggLTAuNjEgeiBtIC0xLjE2LDAgaCAwLjYzIHYgNi40MSBoIC0wLjYzIHogbSAtMS4xNywwIGggMC42MyB2IDYuNDEgaCAtMC42MyB6IG0gLTEuMTYsMCBoIDAuNjMgdiA2LjQxIGggLTAuNjMgeiBtIC0xLjE3LDAgaCAwLjYzIHYgNi40MSBoIC0wLjYzIHogbSAtMS4xNCwwIGggMC42MSB2IDYuNDEgaCAtMC42MSB6IG0gLTAuNjQsLTAuNjQgaCA3LjY5IHYgNy42OSBoIC03LjY5IHoiIHN0eWxlPSJmaWxsOiMwMGFjZDMiIGlua3NjYXBlOmNvbm5lY3Rvci1jdXJ2YXR1cmU9IjAiIGlkPSJwYXRoNzkyNzIiLz4mI3hhOzxwYXRoIGQ9Im0gNTQuNTAwOCwyLjEyMjkzMSBoIDAuNjEgdiA2LjQxIGggLTAuNjEgeiBtIC0xLjE2LDAgaCAwLjYzIHYgNi40MSBoIC0wLjYzIHogbSAtMS4xNywwIGggMC42MyB2IDYuNDEgaCAtMC42MyB6IG0gLTEuMTYsMCBoIDAuNjMgdiA2LjQxIGggLTAuNjMgeiBtIC0xLjE3LDAgaCAwLjYzIHYgNi40MSBoIC0wLjYzIHogbSAtMS4xNCwwIGggMC42MSB2IDYuNDEgaCAtMC42MSB6IG0gLTAuNjQsLTAuNjQgaCA3LjY5IHYgNy42OSBoIC03LjY5IHoiIHN0eWxlPSJmaWxsOiMyMGMyZWYiIGlua3NjYXBlOmNvbm5lY3Rvci1jdXJ2YXR1cmU9IjAiIGlkPSJwYXRoNzkyODAiLz4mI3hhOzxwYXRoIGQ9Im0gNjMuMzc0LDE5Ljg2OTIzMSBoIDAuNjEgdiA2LjQgaCAtMC42MSB6IG0gLTEuMTYsMCBoIDAuNjMgdiA2LjQgaCAtMC42MyB6IG0gLTEuMTcsMCBoIDAuNjMgdiA2LjQgaCAtMC42MyB6IG0gLTEuMTYsMCBoIDAuNjMgdiA2LjQgaCAtMC42MyB6IG0gLTEuMTcsMCBoIDAuNjMgdiA2LjQgaCAtMC42MyB6IG0gLTEuMTQsMCBoIDAuNjEgdiA2LjQgaCAtMC42MSB6IG0gLTAuNjQsLTAuNjQgaCA3LjY5IHYgNy42OSBoIC03LjY5IHoiIHN0eWxlPSJmaWxsOiMwMGFjZDMiIGlua3NjYXBlOmNvbm5lY3Rvci1jdXJ2YXR1cmU9IjAiIGlkPSJwYXRoNzkyODgiLz4mI3hhOyYjeGE7PHBhdGggaWQ9InBhdGg3OTI5NyIgaW5rc2NhcGU6Y29ubmVjdG9yLWN1cnZhdHVyZT0iMCIgc3R5bGU9ImZpbGw6I2Q0ZWRmMSIgZD0ibSAzNy41MiwzOS4zOCBjIDEuMTcsMCAyLjEyLDAuOTUgMi4xMiwyLjEyIDAsMS4xOCAtMC45NSwyLjEzIC0yLjEyLDIuMTMgLTEuMTcsMCAtMi4xMiwtMC45NSAtMi4xMiwtMi4xMyAwLC0xLjE3IDAuOTUsLTIuMTIgMi4xMiwtMi4xMiB6Ii8+JiN4YTsmI3hhOzxwYXRoIGlkPSJwYXRoNzkzMDUiIGlua3NjYXBlOmNvbm5lY3Rvci1jdXJ2YXR1cmU9IjAiIHN0eWxlPSJmaWxsOiMzOTRkNTQiIGQ9Im0gMzcuNTIsMzkuOTkgYyAwLjE5LDAgMC4zOCwwLjA0IDAuNTUsMC4xIC0wLjE5LDAuMTEgLTAuMzEsMC4zMSAtMC4zMSwwLjU0IDAsMC4zNCAwLjI4LDAuNjIgMC42MiwwLjYyIDAuMjMsMCAwLjQ0LC0wLjEzIDAuNTQsLTAuMzMgMC4wOCwwLjE4IDAuMTIsMC4zOCAwLjEyLDAuNTkgMCwwLjg0IC0wLjY4LDEuNTIgLTEuNTIsMS41MiAtMC44NCwwIC0xLjUyLC0wLjY4IC0xLjUyLC0xLjUyIDAsLTAuODQgMC42OCwtMS41MiAxLjUyLC0xLjUyIHoiLz4mI3hhOyYjeGE7PHBhdGggaWQ9InBhdGg3OTMxMyIgaW5rc2NhcGU6Y29ubmVjdG9yLWN1cnZhdHVyZT0iMCIgc3R5bGU9ImZpbGw6IzM5NGQ1NCIgZD0ibSAwLDM0Ljk5IGggNDYuNDcgNS43NSA0Ni40NyBjIC0yLjE1LC0wLjU1IC02LjgsLTEuMjggLTYuMDMsLTQuMSAtMy45MSw0LjUyIC0xMy4zMywzLjE3IC0xNS43MSwwLjk0IC0yLjY1LDMuODUgLTE4LjA3LDIuMzkgLTE5LjE0LC0wLjYxIC0zLjMyLDMuOSAtMTMuNjEsMy45IC0xNi45MywwIEMgMzkuOCwzNC4yMSAyNC4zOSwzNS42NyAyMS43NCwzMS44MyAxOS4zNiwzNC4wNiA5Ljk0LDM1LjQxIDYuMDMsMzAuODkgNi44LDMzLjcxIDIuMTUsMzQuNDQgMCwzNC45OSBaIi8+JiN4YTsmI3hhOzxwYXRoIGlkPSJwYXRoNzkzMjEiIGlua3NjYXBlOmNvbm5lY3Rvci1jdXJ2YXR1cmU9IjAiIHN0eWxlPSJmaWxsOiNiZmRiZTAiIGQ9Im0gNDMuMTcsNTQuNjcgYyAtNS4yNiwtMi40OSAtOC4xNCwtNS44OCAtOS43NSwtOS41OCAtMS45NSwwLjU1IC00LjI5LDAuOTEgLTcuMDIsMS4wNiAtMS4wMywwLjA2IC0yLjExLDAuMDkgLTMuMjQsMC4wOSAtMS4zMSwwIC0yLjY5LC0wLjA0IC00LjEzLC0wLjEyIDQuODIsNC44MiAxMC43NSw4LjUzIDIxLjcyLDguNTkgMC44MSwwLjAxIDEuNjIsLTAuMDEgMi40MiwtMC4wNCB6Ii8+JiN4YTsmI3hhOzxwYXRoIGlkPSJwYXRoNzkzMjkiIGlua3NjYXBlOmNvbm5lY3Rvci1jdXJ2YXR1cmU9IjAiIHN0eWxlPSJmaWxsOiNkNGVkZjEiIGQ9Im0gMzUuMzcsNDguNTEgYyAtMC43MiwtMC45OSAtMS40MywtMi4yMyAtMS45NCwtMy40MiAtMS45NiwwLjU2IC00LjMsMC45MiAtNy4wMywxLjA3IDEuODcsMS4wMiA0LjU1LDEuOTYgOC45NywyLjM1IHoiLz4mI3hhOzwvc3ZnPg==;" vertex="1" parent="1">
          <mxGeometry x="200.0000000000001" y="238.5" width="99" height="83" as="geometry" />
        </mxCell>
        <mxCell id="hJ-bLelYIH7DVtIRV5_r-17" style="edgeStyle=orthogonalEdgeStyle;rounded=0;orthogonalLoop=1;jettySize=auto;html=1;" edge="1" parent="1" source="hJ-bLelYIH7DVtIRV5_r-11" target="hJ-bLelYIH7DVtIRV5_r-5">
          <mxGeometry relative="1" as="geometry">
            <Array as="points">
              <mxPoint x="555" y="80" />
            </Array>
          </mxGeometry>
        </mxCell>
        <mxCell id="hJ-bLelYIH7DVtIRV5_r-11" value="" style="line;strokeWidth=2;direction=south;html=1;" vertex="1" parent="1">
          <mxGeometry x="550" y="210" width="10" height="160" as="geometry" />
        </mxCell>
        <mxCell id="hJ-bLelYIH7DVtIRV5_r-12" value="Using Kubernetes Framework" style="sketch=0;aspect=fixed;html=1;points=[];align=center;image;fontSize=12;image=img/lib/mscae/Kubernetes.svg;" vertex="1" parent="1">
          <mxGeometry x="803" y="240" width="83.33" height="80" as="geometry" />
        </mxCell>
        <mxCell id="hJ-bLelYIH7DVtIRV5_r-18" value="Share FS with JSON containing song list" style="rounded=0;whiteSpace=wrap;html=1;" vertex="1" parent="1">
          <mxGeometry x="560" y="370" width="120" height="60" as="geometry" />
        </mxCell>
        <mxCell id="hJ-bLelYIH7DVtIRV5_r-29" style="edgeStyle=orthogonalEdgeStyle;rounded=0;orthogonalLoop=1;jettySize=auto;html=1;entryX=1.02;entryY=0.5;entryDx=0;entryDy=0;entryPerimeter=0;fontSize=14;" edge="1" parent="1" source="hJ-bLelYIH7DVtIRV5_r-19" target="hJ-bLelYIH7DVtIRV5_r-21">
          <mxGeometry relative="1" as="geometry" />
        </mxCell>
        <mxCell id="hJ-bLelYIH7DVtIRV5_r-19" value="Frontend Client" style="sketch=0;outlineConnect=0;fontColor=#232F3E;gradientColor=none;fillColor=#232F3D;strokeColor=none;dashed=0;verticalLabelPosition=bottom;verticalAlign=top;align=center;html=1;fontSize=12;fontStyle=0;aspect=fixed;pointerEvents=1;shape=mxgraph.aws4.client;" vertex="1" parent="1">
          <mxGeometry x="940" y="532" width="78" height="76" as="geometry" />
        </mxCell>
        <mxCell id="hJ-bLelYIH7DVtIRV5_r-28" style="edgeStyle=orthogonalEdgeStyle;rounded=0;orthogonalLoop=1;jettySize=auto;html=1;entryX=0.25;entryY=1;entryDx=0;entryDy=0;fontSize=14;" edge="1" parent="1" source="hJ-bLelYIH7DVtIRV5_r-21" target="hJ-bLelYIH7DVtIRV5_r-14">
          <mxGeometry relative="1" as="geometry">
            <Array as="points">
              <mxPoint x="490" y="570" />
            </Array>
          </mxGeometry>
        </mxCell>
        <mxCell id="hJ-bLelYIH7DVtIRV5_r-21" value="Load Balancer" style="sketch=0;aspect=fixed;html=1;points=[];align=center;image;fontSize=12;image=img/lib/mscae/Load_Balancer_feature.svg;" vertex="1" parent="1">
          <mxGeometry x="570" y="520" width="100" height="100" as="geometry" />
        </mxCell>
        <mxCell id="hJ-bLelYIH7DVtIRV5_r-22" value="Encryption Certification" style="sketch=0;aspect=fixed;html=1;points=[];align=center;image;fontSize=12;image=img/lib/mscae/Certificate.svg;" vertex="1" parent="1">
          <mxGeometry x="595" y="450" width="50" height="42" as="geometry" />
        </mxCell>
        <mxCell id="hJ-bLelYIH7DVtIRV5_r-23" value="Uses Endpoint:&lt;br&gt;dgdkaraoke.com" style="sketch=0;aspect=fixed;html=1;points=[];align=center;image;fontSize=12;image=img/lib/mscae/CustomDomain.svg;" vertex="1" parent="1">
          <mxGeometry x="595" y="650" width="50" height="42" as="geometry" />
        </mxCell>
        <mxCell id="hJ-bLelYIH7DVtIRV5_r-27" value="&lt;b&gt;&lt;u&gt;&lt;font style=&quot;font-size: 14px&quot;&gt;Backend&lt;/font&gt;&lt;/u&gt;&lt;/b&gt;" style="text;html=1;strokeColor=none;fillColor=none;align=center;verticalAlign=middle;whiteSpace=wrap;rounded=0;glass=0;" vertex="1" parent="1">
          <mxGeometry x="600" y="180" width="60" height="30" as="geometry" />
        </mxCell>
        <mxCell id="hJ-bLelYIH7DVtIRV5_r-30" value="" style="sketch=0;aspect=fixed;html=1;points=[];align=center;image;fontSize=12;image=img/lib/mscae/Application_Security_Groups.svg;glass=0;" vertex="1" parent="1">
          <mxGeometry x="200" y="40" width="37" height="50" as="geometry" />
        </mxCell>
        <mxCell id="hJ-bLelYIH7DVtIRV5_r-31" value="" style="sketch=0;aspect=fixed;html=1;points=[];align=center;image;fontSize=12;image=img/lib/mscae/Application_Security_Groups.svg;glass=0;" vertex="1" parent="1">
          <mxGeometry x="420" y="210" width="37" height="50" as="geometry" />
        </mxCell>
        <mxCell id="hJ-bLelYIH7DVtIRV5_r-32" value="" style="sketch=0;aspect=fixed;html=1;points=[];align=center;image;fontSize=12;image=img/lib/mscae/Application_Security_Groups.svg;glass=0;" vertex="1" parent="1">
          <mxGeometry x="541.5" y="520" width="37" height="50" as="geometry" />
        </mxCell>
        <mxCell id="hJ-bLelYIH7DVtIRV5_r-33" value="*must be in same&lt;br&gt;Security Group" style="sketch=0;aspect=fixed;html=1;points=[];align=center;image;fontSize=12;image=img/lib/mscae/Application_Security_Groups.svg;glass=0;" vertex="1" parent="1">
          <mxGeometry x="880" y="80" width="37" height="50" as="geometry" />
        </mxCell>
        <mxCell id="hJ-bLelYIH7DVtIRV5_r-34" value="Code Hosted&lt;br&gt;on GitHub" style="dashed=0;outlineConnect=0;html=1;align=center;labelPosition=center;verticalLabelPosition=bottom;verticalAlign=top;shape=mxgraph.weblogos.github;glass=0;fontSize=14;" vertex="1" parent="1">
          <mxGeometry x="800" y="400" width="75" height="75" as="geometry" />
        </mxCell>
        <mxCell id="hJ-bLelYIH7DVtIRV5_r-35" value="Terraform to manage&#xa;Infrastructure" style="shape=image;verticalLabelPosition=bottom;verticalAlign=top;imageAspect=0;aspect=fixed;image=data:image/png,iVBORw0KGgoAAAANSUhEUgAAAOEAAADhCAMAAAAJbSJIAAAAqFBMVEX///9fQ+lAQLL6+v45ObCilPFPK+dZOuhRL+hWN+j39/x9fce3rfTp5vtUM+heQekxMa4tLa28s/XVz/ifkfF7ZuyBbe1oTuonJ6ypqdk3N7BsU+vc1/nNxveZivDl4fvHx+aHh8vW1u1/a+3h4fJLS7aFcu5kZL7Cufbt6vypnPKLee50Xuu6uuCZmdLs7PdbW7tFGue0qfRLJOciIqtkSepZWbt1dcQVUpZjAAAF8klEQVR4nO2d63baOBSFZWMwkICBMARIm0svaZOZaUtop+//ZiMZEyxbsiVjR0en5/vTH+1a8bfK7tnWhTJGEARBEARBEARBEAThP+/vXD9B17zslt9dP0O3XI7i+MX1Q3TK5ShIptfvXT9Gh3DDIEiGf+GNY2rIHQe3Y9eP0hGZYRDEQ6RxfDVEG8eToYjjCmEc84b8ozq9RTcdZUPuOMIWx6Ihj2OAK44lQxHHj5jiqDBMpyOeOCoNeRzxlFWNIaLpqDMUjjjKqt4QS1mtMuRxHFy6fsCzqTbEEMcaQwTTsdYwLas+x9HA0POyamTI4/jL2ziaGfq8lGNq6G9ZNTf0tazaGPo5Ha0MvYyjpWEax57rh7bC2jAI9hPXD21FA8MhGcKiseH4LSfH5oxi3Niwt7u5akughvvPayeGg2S4eovP66cv8yhyYyiWAJZdT47xwzoKQ2eG4r1q0ZaLks18G4ZODXmR6zCO959nYejaUJScx27iyAMYhhAMxTLHsv1ljvHDPAqhGAZJHLcdx81sG4ZwDNNljjbjeB/OwhCWYatxzAUQkqE4zdFvI46HCQjSMAhGyflx3Gy3RT9AhudPx9cJCNUwPbHSPI7lAAI0TMtqs+cZP/wsBRCkoWgATeIoT0DYhk3iqAkgVEMRR6vpqA0gXEOrsipVUH8Mzd8dqwII29CsrBYrqFeGBtPx05d1vR9kw5rpqKqg3hmKsqo7saKsoK0bvky7NtRNR6MAtmB4dz1NOjZMT6wU41g3AdszZOxrMrJztDcsrawaB7AVQ9Z7nsZdG4rpeIpjtgr6ZoaMPf09sPhrbGYo4vgu/WnVFbQbQ8be/TM0dmxoyP9VXaY/67flX2A7hmkcuzaM++lPurCKYHuGjD0PzOLoryGPo9FH1WNDEUeD6ei1IY/jr9rp6LmhwXT03bB+OvpvyON4U/VPDgbD6rKKw5BPR20csRjqpyMaQ21ZRWSoKauoDJVlFZmhIo7YDMtlFZ9hcTpiNJTLKkpDqawiNcxNR7SGr3FEbJiVVdSG6XTEbSjiuENuyNgCveEBMkRguLPddzzDcO7kMvmt3Z7cGYbb2TcXgozdPdrsyTU2jNa/3d0/vrqx2iJvZDj/74MzP8HC5qPawHC2/depH6e3HBo7WhtGa0cBlJmsTLePLQ2jucMAypjG0c5w/sNtANk4yB0DWhhtkdsYzkL3AdznD8mO+wZb5OaG0fyb+yvxvLXFw9wxoMmqdjqaGjqdgCfSXiodkr2qO0BmaOh6Ah45NO9kep2PY1z9vVomhrPIeQAzju8W0o2u8bKqARgY8grqPoAZp7cn6UbXpKKs1hpG6wsIAczIvx9KN7r007HO0PkElJHegOVDsouR+qNabQgngBmFd/xkuHo6/d5SOR2rDIFU0DylVQzpzLqyrOoNAVXQE4p1Gum+syKOWkNgAcxQrUQV4lgsqxpDABVUiXqtTbrRNS68OyoNtxAqqBLdamI8zZdVaToqDGFNQBn9emn+zLpUVsuGUCqokooV4VJZTdSGUAOYUbnmLZXV3rGsyobOVkFNqVnVly5YTh7T6Zg3hBzAjNp9izjOx1FMx5whzAkoU78zUyqrr4bgKqgSk70naTr2+vvDjZKLn8ADmGG2uxbv83H8mv6ygR7ADNP9w/a/nOetMN4h7fS7srrEYg/Y0/+/xmqXOx528F1ZXWO5jy+VVT+wPakgl1UfsD+LkeyfXT+0Fc1Pm/gCGZIhfMiQDOFDhmQIHzIkQ/iQIRnChwzJED5kSIbwIUMyhA8ZkiF8ejvbC5a+GR6PASE2tL5g6aFh7RUSBIalQ7L4DI1udHluaHCjy3tD4zh6bFhzowuDodl09NvQZDr6bijiWP1R9d9Qd6MLkSFjT1VxRGFYGUckhhVfP4DGUPv1A3gMdWUVk6E6jrgMVWUVmyHr9QvvjugMS2UVoWEhjigNpa8fQGqYK6tYDU9xxGt4jCNmw0NZxW3Iy+p0ittQlNVb14/QOU/1f4QgCIIgCIIgCIIgiD+X/wEzo5EzDuDO6gAAAABJRU5ErkJggg==;glass=0;fontSize=14;" vertex="1" parent="1">
          <mxGeometry x="240" y="400" width="120" height="120" as="geometry" />
        </mxCell>
      </root>
    </mxGraphModel>
  </diagram>
</mxfile>
